<?xml version="1.0" encoding="UTF-8" standalone="no"?>
<!-- Created with Inkscape (http://www.inkscape.org/) -->

<svg
   width="297mm"
   height="210mm"
   viewBox="0 0 297 210"
   version="1.1"
   id="svg1"
   inkscape:version="1.3 (0e150ed6c4, 2023-07-21)"
   sodipodi:docname="&amp;~.svg"
   xmlns:inkscape="http://www.inkscape.org/namespaces/inkscape"
   xmlns:sodipodi="http://sodipodi.sourceforge.net/DTD/sodipodi-0.dtd"
   xmlns="http://www.w3.org/2000/svg"
   xmlns:svg="http://www.w3.org/2000/svg">
  <sodipodi:namedview
     id="namedview1"
     pagecolor="#ffffff"
     bordercolor="#000000"
     borderopacity="0.25"
     inkscape:showpageshadow="2"
     inkscape:pageopacity="0.0"
     inkscape:pagecheckerboard="0"
     inkscape:deskcolor="#d1d1d1"
     inkscape:document-units="mm"
     inkscape:zoom="1.3367758"
     inkscape:cx="102.4854"
     inkscape:cy="288.38044"
     inkscape:window-width="1858"
     inkscape:window-height="1057"
     inkscape:window-x="-8"
     inkscape:window-y="-8"
     inkscape:window-maximized="1"
     inkscape:current-layer="layer1"
     showguides="true" />
  <defs
     id="defs1">
    <inkscape:path-effect
       lpeversion="1"
       is_visible="true"
       id="path-effect12523"
       effect="spiro" />
    <inkscape:path-effect
       lpeversion="1"
       is_visible="true"
       id="path-effect12527"
       effect="spiro" />
    <inkscape:path-effect
       lpeversion="1"
       is_visible="true"
       id="path-effect12531"
       effect="spiro" />
    <inkscape:path-effect
       lpeversion="1"
       is_visible="true"
       id="path-effect12535"
       effect="spiro" />
  </defs>
  <g
     inkscape:label="图层 1"
     inkscape:groupmode="layer"
     id="layer1">
    <path
       id="path2"
       style="fill:none;stroke:#000000;stroke-width:1.13209;stroke-linecap:round;stroke-linejoin:round;stroke-miterlimit:4;stroke-dasharray:none;stroke-dashoffset:0;stroke-opacity:1;paint-order:markers fill stroke"
       inkscape:transform-center-x="-1.8814904"
       inkscape:transform-center-y="1.7808552"
       d="M 79.129949,13.833941 73.208081,46.089865 67.286214,78.345807 80.446096,78.20414 93.605997,78.062474 86.367964,45.948213 Z" />
    <path
       id="path3"
       style="fill:none;stroke:#000000;stroke-width:1.13209;stroke-linecap:round;stroke-linejoin:round;stroke-miterlimit:4;stroke-dasharray:none;stroke-dashoffset:0;stroke-opacity:1;paint-order:markers fill stroke"
       inkscape:transform-center-x="-1.8814904"
       inkscape:transform-center-y="-1.7808549"
       d="m 79.129949,144.20333 -5.921868,-32.25594 -5.921867,-32.255933 13.159882,0.141667 13.159901,0.141666 -7.238033,32.11427 z" />
    <path
       id="path299"
       style="fill:none;stroke:#000000;stroke-width:1.13209;stroke-linecap:round;stroke-linejoin:round;stroke-miterlimit:4;stroke-dasharray:none;stroke-dashoffset:0;stroke-opacity:1;paint-order:markers fill stroke"
       inkscape:transform-center-x="-1.8814879"
       inkscape:transform-center-y="1.7808525"
       d="M 15.261395,80.334791 47.517317,86.256647 79.773255,92.178516 79.631606,79.018644 79.489957,65.85874 47.375686,73.096766 Z" />
    <path
       id="path1"
       style="fill:none;stroke:#000000;stroke-width:1.13209;stroke-linecap:round;stroke-linejoin:round;stroke-miterlimit:4;stroke-dasharray:none;stroke-dashoffset:0;stroke-opacity:1;paint-order:markers fill stroke"
       inkscape:transform-center-x="-1.8814888"
       inkscape:transform-center-y="-1.7808574"
       d="m 145.63079,80.334791 -32.25593,5.921856 -32.25594,5.921869 0.141649,-13.159872 0.141649,-13.159904 32.114252,7.238026 z" />
    <text
       xml:space="preserve"
       style="font-size:8.46667px;font-family:sans-serif;-inkscape-font-specification:sans-serif;fill:none;stroke:#000000;stroke-width:0.3;paint-order:fill markers stroke"
       x="-36.655064"
       y="-23.810125"
       id="text3"><tspan
         sodipodi:role="line"
         id="tspan3"
         style="stroke-width:0.3" /></text>
    <text
       xml:space="preserve"
       style="font-size:7.13197px;font-family:sans-serif;-inkscape-font-specification:sans-serif;fill:none;stroke:#000000;stroke-width:0.168472;stroke-dasharray:none;paint-order:fill markers stroke"
       x="7.4725056"
       y="-17.194843"
       id="text4"
       transform="scale(1.0772324,0.92830479)"><tspan
         sodipodi:role="line"
         id="tspan4"
         style="fill:#000000;stroke-width:0.168472;stroke-dasharray:none"
         x="7.4725056"
         y="-17.194843">KRS:DRS:PI3.14:GS.TIME</tspan></text>
    <path
       d="m -20.003856,49.713028 h -1.932056 v 4.768402 h -0.719074 v -4.768402 h -1.932056 v -0.639176 h 4.583186 z m 4.85193,-0.639176 -1.866686,2.67292 1.863055,2.734658 h -0.831656 l -1.474464,-2.226223 -1.510781,2.226223 h -0.784444 l 1.884845,-2.701973 -1.841264,-2.705605 h 0.828024 l 1.456305,2.197169 1.488991,-2.197169 z m 5.10978,5.015356 q -0.199742,0.08716 -0.363168,0.163426 -0.159794,0.07626 -0.421275,0.159794 -0.221533,0.069 -0.483014,0.116214 -0.25785,0.05084 -0.570175,0.05084 -0.588333,0 -1.071347,-0.163426 -0.479382,-0.167058 -0.835287,-0.519331 -0.348642,-0.34501 -0.544753,-0.875236 -0.196111,-0.533858 -0.196111,-1.238405 0,-0.668229 0.188848,-1.194824 0.188847,-0.526594 0.544752,-0.889762 0.34501,-0.352274 0.831656,-0.53749 0.490278,-0.185216 1.085874,-0.185216 0.435802,0 0.867972,0.105319 0.435803,0.105319 0.966028,0.370432 v 0.853446 h -0.05448 q -0.446697,-0.374064 -0.886131,-0.544753 -0.439434,-0.170689 -0.940606,-0.170689 -0.41038,0 -0.740864,0.134372 -0.326851,0.130741 -0.584701,0.410381 -0.250586,0.272376 -0.392222,0.69002 -0.138004,0.414012 -0.138004,0.958764 0,0.570175 0.152531,0.980555 0.156162,0.410381 0.399485,0.66823 0.254218,0.268745 0.591965,0.399486 0.341378,0.127108 0.719073,0.127108 0.519331,0 0.973292,-0.177952 0.45396,-0.177953 0.849814,-0.533858 h 0.05084 z"
       id="text6-6"
       style="font-size:7.43769px;-inkscape-font-specification:sans-serif;stroke:#000000;stroke-width:0.163733;paint-order:fill markers stroke"
       aria-label="TXC" />
    <path
       id="path4"
       style="fill:none;stroke:#000000;stroke-width:1.13209;stroke-linecap:round;stroke-linejoin:round;stroke-miterlimit:4;stroke-dasharray:2.26418, 2.26418;stroke-dashoffset:0;stroke-opacity:1;paint-order:markers fill stroke"
       inkscape:transform-center-x="-1.8814825"
       inkscape:transform-center-y="1.7808545"
       d="m 125.60796,31.995435 -26.995769,18.621 -26.995782,18.620992 9.40561,9.205263 9.405645,9.205293 17.590136,-27.826274 z" />
    <path
       id="path5"
       style="fill:none;stroke:#000000;stroke-width:1.13209;stroke-linecap:round;stroke-linejoin:round;stroke-miterlimit:4;stroke-dasharray:2.26418, 2.26418;stroke-dashoffset:0;stroke-opacity:1;paint-order:markers fill stroke"
       inkscape:transform-center-x="-1.8814857"
       inkscape:transform-center-y="-1.7808593"
       d="M 33.422884,124.18051 52.0439,97.184736 70.664881,70.188951 l 9.205275,9.40561 9.205276,9.405637 -27.826274,17.590162 z" />
    <path
       id="path6"
       style="fill:none;stroke:#000000;stroke-width:1.13179;stroke-linecap:round;stroke-linejoin:round;stroke-miterlimit:4;stroke-dasharray:2.26359, 2.26359;stroke-dashoffset:0;stroke-opacity:1;paint-order:markers fill stroke"
       inkscape:transform-center-x="-1.8814863"
       inkscape:transform-center-y="1.7808556"
       d="M 33.422901,31.995446 52.0439,58.991212 70.664898,85.987006 79.870156,76.581394 89.07545,67.175749 61.249175,49.585603 Z" />
    <path
       id="path7"
       style="fill:none;stroke:#000000;stroke-width:1.13209;stroke-linecap:round;stroke-linejoin:round;stroke-miterlimit:4;stroke-dasharray:2.26418, 2.26418;stroke-dashoffset:0;stroke-opacity:1;paint-order:markers fill stroke"
       inkscape:transform-center-x="-1.8814941"
       inkscape:transform-center-y="-1.7808555"
       d="M 125.608,124.18053 98.612211,105.55952 71.616426,86.938528 l 9.40561,-9.205263 9.405628,-9.205288 17.590156,27.826259 z" />
    <path
       style="fill:#ffffff;stroke:#000000;stroke-width:1.13209;stroke-linecap:butt;stroke-linejoin:miter;stroke-miterlimit:5.5;stroke-dasharray:none;stroke-opacity:1"
       d="M 42.923107,81.174635 80.049899,43.943659 117.28096,81.174635 80.049899,118.40553 Z"
       id="path35" />
    <path
       id="circle1025"
       style="fill:#ffffff;stroke:#000000;stroke-width:1.13209;stroke-miterlimit:5.5"
       d="M 101.31615,81.174614 A 21.213095,21.213095 0 0 1 80.103058,102.38771 21.213095,21.213095 0 0 1 58.889963,81.174614 21.213095,21.213095 0 0 1 80.103058,59.961519 21.213095,21.213095 0 0 1 101.31615,81.174614 Z" />
    <path
       d="m -28.722548,47.59006 -2.474122,6.796987 h -1.205107 l -2.474121,-6.796987 h 0.967737 l 2.131762,5.979888 2.131761,-5.979888 z"
       id="text1279"
       style="font-size:9.34871px;line-height:1.25;stroke:#000000;stroke-width:0.120456"
       aria-label="V" />
    <path
       style="fill:none;stroke:#000000;stroke-width:0.536205;stroke-linecap:butt;stroke-linejoin:miter;stroke-miterlimit:5.5;stroke-dasharray:none;stroke-opacity:1"
       d="m -22.9484,101.77073 -10.380996,-17.841349 20.64167,-0.01794 z"
       id="path16757" />
    <path
       style="fill:none;stroke:#000000;stroke-width:0.710864;stroke-linecap:butt;stroke-linejoin:miter;stroke-miterlimit:5.5;stroke-dasharray:2.13259, 0.710864;stroke-dashoffset:0;stroke-opacity:1"
       d="m -33.069588,120.81463 10.16592,-17.96477 10.430513,17.81248 z"
       id="path16759" />
    <path
       d="m -22.000827,22.886706 h -2.305123 l -1.595015,-4.533774 h -7.035542 l -1.595014,4.533774 h -2.195876 L -30.80618,6.619745 h 2.884136 z m -4.566548,-6.390982 -2.851361,-7.985997 -2.862286,7.985997 z"
       id="text8"
       style="font-size:22.3739px;line-height:1.25;stroke:#000000;stroke-width:0.288283"
       aria-label="A" />
    <text
       xml:space="preserve"
       style="font-size:6.20848px;font-family:sans-serif;-inkscape-font-specification:sans-serif;fill:#000000;stroke:#000000;stroke-width:0.0366643;stroke-dasharray:none;stroke-dashoffset:0;paint-order:fill markers stroke"
       x="124.40709"
       y="-23.172424"
       id="text32"
       transform="scale(1.0761352,0.92925128)"><tspan
         sodipodi:role="line"
         id="tspan32"
         style="stroke-width:0.0366643;stroke-dasharray:none"
         x="124.40709"
         y="-23.172424">KTS.KNT</tspan><tspan
         sodipodi:role="line"
         style="stroke-width:0.0366643;stroke-dasharray:none"
         x="124.40709"
         y="-15.411824"
         id="tspan53">NIK~LAN</tspan><tspan
         sodipodi:role="line"
         style="stroke-width:0.0366643;stroke-dasharray:none"
         x="124.40709"
         y="-7.6512246"
         id="tspan55">GST1</tspan></text>
    <path
       d="m 91.006832,75.368737 -4.614471,14.464336 -2.522966,-0.03044 -3.345269,-12.093305 -3.65795,12.008742 -2.466401,-0.0298 -4.221577,-14.571027 2.296694,0.02788 3.344953,12.112803 3.680893,-12.027968 2.274065,0.02756 3.320426,12.229523 3.716733,-12.144553 z"
       id="text57"
       style="font-size:6.71219px;-inkscape-font-specification:sans-serif;stroke:#000000;stroke-width:0.554667;paint-order:fill markers stroke"
       aria-label="W" />
  </g>
</svg>
