<?xml version="1.0" encoding="UTF-8" standalone="no"?>
<!-- Created with Inkscape (http://www.inkscape.org/) -->

<svg
   width="297mm"
   height="202mm"
   viewBox="0 0 297 202"
   version="1.1"
   id="svg5"
   inkscape:version="1.3 (0e150ed6c4, 2023-07-21)"
   sodipodi:docname="krl.svg"
   inkscape:export-filename="..\..\..\Users\wjcki\Desktop\wjcking1.png"
   inkscape:export-xdpi="96"
   inkscape:export-ydpi="96"
   xml:space="preserve"
   xmlns:inkscape="http://www.inkscape.org/namespaces/inkscape"
   xmlns:sodipodi="http://sodipodi.sourceforge.net/DTD/sodipodi-0.dtd"
   xmlns="http://www.w3.org/2000/svg"
   xmlns:svg="http://www.w3.org/2000/svg"><sodipodi:namedview
     id="namedview7"
     pagecolor="#ffffff"
     bordercolor="#666666"
     borderopacity="1.0"
     inkscape:pageshadow="2"
     inkscape:pageopacity="0.0"
     inkscape:pagecheckerboard="0"
     inkscape:document-units="mm"
     showgrid="false"
     inkscape:zoom="1.0293552"
     inkscape:cx="487.68394"
     inkscape:cy="295.81625"
     inkscape:window-width="1858"
     inkscape:window-height="1057"
     inkscape:window-x="54"
     inkscape:window-y="-8"
     inkscape:window-maximized="1"
     inkscape:current-layer="layer1"
     showguides="false"
     inkscape:showpageshadow="2"
     inkscape:deskcolor="#d1d1d1"
     inkscape:export-bgcolor="#ffffffff" /><defs
     id="defs2" /><g
     inkscape:label="图层 1"
     inkscape:groupmode="layer"
     id="layer1"><path
       id="path17536"
       style="fill:none;stroke:#000000;stroke-width:0.54041;stroke-dasharray:2.16165, 2.16165;stroke-dashoffset:0"
       d="M 214.46521,75.511389 A 49.776506,49.776506 0 0 1 164.6887,125.28786 49.776506,49.776506 0 0 1 114.91219,75.511389 49.776506,49.776506 0 0 1 164.6887,25.734885 49.776506,49.776506 0 0 1 214.46521,75.511389 Z"
       inkscape:export-filename="path17536.png"
       inkscape:export-xdpi="96"
       inkscape:export-ydpi="96" /><circle
       style="fill:#67daff;fill-opacity:1;stroke:#000000;stroke-width:0.2;stroke-dasharray:none;stroke-dashoffset:0;stroke-opacity:1"
       id="circle16374"
       cx="204.97787"
       cy="104.77148"
       r="8.4133167" /><circle
       style="fill:#67daff;fill-opacity:1;stroke:#000000;stroke-width:0.2;stroke-dasharray:none;stroke-dashoffset:0;stroke-opacity:1"
       id="circle14896"
       cx="214.07729"
       cy="84.314766"
       r="8.4133167" /><path
       sodipodi:type="star"
       style="fill:#b3ff80;fill-opacity:1;stroke:#000000;stroke-width:1.00157;stroke-miterlimit:4;stroke-dasharray:none;stroke-opacity:1"
       id="path1371"
       inkscape:flatsided="true"
       sodipodi:sides="6"
       sodipodi:cx="127"
       sodipodi:cy="443"
       sodipodi:r1="73.600273"
       sodipodi:r2="63.739704"
       sodipodi:arg1="2.6179939"
       sodipodi:arg2="3.1415927"
       inkscape:rounded="0"
       inkscape:randomized="0"
       d="m 63.260293,479.80014 2e-6,-73.60028 L 127,369.39973 l 63.73971,36.80013 0,73.60028 L 127,516.60027 Z"
       transform="matrix(0.11690422,0,0,0.11690422,146.17595,30.129805)" /><text
       xml:space="preserve"
       style="font-size:8.34233px;line-height:1.25;font-family:sans-serif;word-spacing:0px;stroke-width:0.391045"
       x="156.83553"
       y="84.830826"
       id="text12335"><tspan
         sodipodi:role="line"
         id="tspan12333"
         style="stroke-width:0.391045"
         x="156.83553"
         y="84.830826">时</tspan></text><path
       sodipodi:type="star"
       style="fill:#b3ff80;fill-opacity:1;stroke:#000000;stroke-width:1.00157;stroke-miterlimit:4;stroke-dasharray:none;stroke-opacity:1"
       id="path13869"
       inkscape:flatsided="true"
       sodipodi:sides="6"
       sodipodi:cx="127"
       sodipodi:cy="443"
       sodipodi:r1="73.600273"
       sodipodi:r2="63.739704"
       sodipodi:arg1="2.6179939"
       sodipodi:arg2="3.1415927"
       inkscape:rounded="0"
       inkscape:randomized="0"
       d="m 63.260293,479.80014 2e-6,-73.60028 L 127,369.39973 l 63.73971,36.80013 0,73.60028 L 127,516.60027 Z"
       transform="matrix(0.11690422,0,0,0.11690422,153.62739,43.036074)" /><path
       sodipodi:type="star"
       style="fill:#67daff;fill-opacity:1;stroke:#000000;stroke-width:1.00157;stroke-miterlimit:4;stroke-dasharray:none;stroke-opacity:1"
       id="path13875"
       inkscape:flatsided="true"
       sodipodi:sides="6"
       sodipodi:cx="127"
       sodipodi:cy="443"
       sodipodi:r1="73.600273"
       sodipodi:r2="63.739704"
       sodipodi:arg1="2.6179939"
       sodipodi:arg2="3.1415927"
       inkscape:rounded="0"
       inkscape:randomized="0"
       d="m 63.260293,479.80014 2e-6,-73.60028 L 127,369.39973 l 63.73971,36.80013 0,73.60028 L 127,516.60027 Z"
       transform="matrix(0.11690422,0,0,0.11690422,138.72451,43.036074)" /><path
       sodipodi:type="star"
       style="fill:#67daff;fill-opacity:1;stroke:#000000;stroke-width:1.00157;stroke-miterlimit:4;stroke-dasharray:none;stroke-opacity:1"
       id="path13881"
       inkscape:flatsided="true"
       sodipodi:sides="6"
       sodipodi:cx="127"
       sodipodi:cy="443"
       sodipodi:r1="73.600273"
       sodipodi:r2="63.739704"
       sodipodi:arg1="2.6179939"
       sodipodi:arg2="3.1415927"
       inkscape:rounded="0"
       inkscape:randomized="0"
       d="m 63.260293,479.80014 2e-6,-73.60028 L 127,369.39973 l 63.73971,36.80013 0,73.60028 L 127,516.60027 Z"
       transform="matrix(0.11690422,0,0,0.11690422,175.98171,30.129805)" /><text
       xml:space="preserve"
       style="font-style:normal;font-variant:normal;font-weight:normal;font-stretch:normal;font-size:8.34233px;line-height:1.25;font-family:'Microsoft YaHei';-inkscape-font-specification:'Microsoft YaHei, Normal';font-variant-ligatures:normal;font-variant-caps:normal;font-variant-numeric:normal;font-variant-east-asian:normal;word-spacing:0px;stroke-width:0.391045"
       x="149.10147"
       y="-92.064766"
       id="text13885"
       transform="scale(1,-1)"><tspan
         sodipodi:role="line"
         id="tspan13883"
         style="font-style:normal;font-variant:normal;font-weight:normal;font-stretch:normal;font-size:8.34233px;font-family:'Microsoft YaHei';-inkscape-font-specification:'Microsoft YaHei, Normal';font-variant-ligatures:normal;font-variant-caps:normal;font-variant-numeric:normal;font-variant-east-asian:normal;stroke-width:0.391045"
         x="149.10147"
         y="-92.064766">研</tspan></text><path
       sodipodi:type="star"
       style="fill:#67daff;fill-opacity:1;stroke:#000000;stroke-width:1.00157;stroke-miterlimit:4;stroke-dasharray:none;stroke-opacity:1"
       id="path13887"
       inkscape:flatsided="true"
       sodipodi:sides="6"
       sodipodi:cx="127"
       sodipodi:cy="443"
       sodipodi:r1="73.600273"
       sodipodi:r2="63.739704"
       sodipodi:arg1="2.6179939"
       sodipodi:arg2="3.1415927"
       inkscape:rounded="0"
       inkscape:randomized="0"
       d="m 63.260293,479.80014 2e-6,-73.60028 L 127,369.39973 l 63.73971,36.80013 0,73.60028 L 127,516.60027 Z"
       transform="matrix(0.11690422,0,0,0.11690422,138.72451,17.223525)"
       inkscape:transform-center-y="-1.5290786e-06" /><text
       xml:space="preserve"
       style="font-size:8.34233px;line-height:1.25;font-family:sans-serif;word-spacing:0px;stroke-width:0.391045"
       x="149.38408"
       y="71.924568"
       id="text13891"><tspan
         sodipodi:role="line"
         id="tspan13889"
         style="stroke-width:0.391045"
         x="149.38408"
         y="71.924568">诚</tspan></text><path
       sodipodi:type="star"
       style="fill:#b3ff80;fill-opacity:1;stroke:#000000;stroke-width:1.00157;stroke-miterlimit:4;stroke-dasharray:none;stroke-opacity:1"
       id="path13893"
       inkscape:flatsided="true"
       sodipodi:sides="6"
       sodipodi:cx="127"
       sodipodi:cy="443"
       sodipodi:r1="73.600273"
       sodipodi:r2="63.739704"
       sodipodi:arg1="2.6179939"
       sodipodi:arg2="3.1415927"
       inkscape:rounded="0"
       inkscape:randomized="0"
       d="m 63.260293,479.80014 2e-6,-73.60028 L 127,369.39973 l 63.73971,36.80013 0,73.60028 L 127,516.60027 Z"
       transform="matrix(0.11690422,0,0,0.11690422,153.62739,17.223525)"
       inkscape:transform-center-y="-1.5290786e-06" /><path
       sodipodi:type="star"
       style="fill:#67daff;fill-opacity:1;stroke:#000000;stroke-width:1.00157;stroke-miterlimit:4;stroke-dasharray:none;stroke-opacity:1"
       id="path13899"
       inkscape:flatsided="true"
       sodipodi:sides="6"
       sodipodi:cx="127"
       sodipodi:cy="443"
       sodipodi:r1="73.600273"
       sodipodi:r2="63.739704"
       sodipodi:arg1="2.6179939"
       sodipodi:arg2="3.1415927"
       inkscape:rounded="0"
       inkscape:randomized="0"
       d="m 63.260293,479.80014 2e-6,-73.60028 L 127,369.39973 l 63.73971,36.80013 0,73.60028 L 127,516.60027 Z"
       transform="matrix(0.11690422,0,0,0.11690422,161.07884,30.129805)" /><path
       sodipodi:type="star"
       style="fill:#b3ff80;stroke:#000000;stroke-width:1.00157;stroke-miterlimit:4;stroke-dasharray:none;stroke-opacity:1"
       id="path23584"
       inkscape:flatsided="true"
       sodipodi:sides="6"
       sodipodi:cx="127"
       sodipodi:cy="443"
       sodipodi:r1="73.600273"
       sodipodi:r2="63.739704"
       sodipodi:arg1="2.6179939"
       sodipodi:arg2="3.1415927"
       inkscape:rounded="0"
       inkscape:randomized="0"
       d="m 63.260293,479.80014 2e-6,-73.60028 L 127,369.39973 l 63.73971,36.80013 0,73.60028 L 127,516.60027 Z"
       transform="matrix(0.11690422,0,0,0.11690422,175.98171,4.3172437)"
       inkscape:transform-center-y="-1.4173342e-06" /><path
       sodipodi:type="star"
       style="fill:#67daff;fill-opacity:1;stroke:#000000;stroke-width:1.00157;stroke-miterlimit:4;stroke-dasharray:none;stroke-opacity:1"
       id="path27496"
       inkscape:flatsided="true"
       sodipodi:sides="6"
       sodipodi:cx="127"
       sodipodi:cy="443"
       sodipodi:r1="73.600273"
       sodipodi:r2="63.739704"
       sodipodi:arg1="2.6179939"
       sodipodi:arg2="3.1415927"
       inkscape:rounded="0"
       inkscape:randomized="0"
       d="m 63.260293,479.80014 2e-6,-73.60028 L 127,369.39973 l 63.73971,36.80013 0,73.60028 L 127,516.60027 Z"
       transform="matrix(0.11690422,0,0,0.11690422,183.43315,17.223525)"
       inkscape:transform-center-x="-4.2189048e-06"
       inkscape:transform-center-y="-1.3260704e-06" /><text
       xml:space="preserve"
       style="font-size:8.34233px;line-height:1.25;font-family:sans-serif;word-spacing:0px;stroke-width:0.391045"
       x="194.09271"
       y="-66.197365"
       id="text27500"
       transform="scale(1,-1)"><tspan
         sodipodi:role="line"
         id="tspan27498"
         style="stroke-width:0.391045"
         x="194.09271"
         y="-66.197365">视</tspan></text><path
       sodipodi:type="star"
       style="fill:#67daff;fill-opacity:1;stroke:#000000;stroke-width:1.00157;stroke-miterlimit:4;stroke-dasharray:none;stroke-opacity:1"
       id="path28720"
       inkscape:flatsided="true"
       sodipodi:sides="6"
       sodipodi:cx="127"
       sodipodi:cy="443"
       sodipodi:r1="73.600273"
       sodipodi:r2="63.739704"
       sodipodi:arg1="2.6179939"
       sodipodi:arg2="3.1415927"
       inkscape:rounded="0"
       inkscape:randomized="0"
       d="m 63.260293,479.80014 2e-6,-73.60028 L 127,369.39973 l 63.73971,36.80013 0,73.60028 L 127,516.60027 Z"
       transform="matrix(0.11690422,0,0,0.11690422,168.53028,17.223525)"
       inkscape:transform-center-y="-1.3260704e-06" /><text
       xml:space="preserve"
       style="font-size:8.34233px;line-height:1.25;font-family:sans-serif;word-spacing:0px;stroke-width:0.391045"
       x="-187.53218"
       y="71.924568"
       id="text28724"
       transform="scale(-1,1)"><tspan
         sodipodi:role="line"
         id="tspan28722"
         style="stroke-width:0.391045"
         x="-187.53218"
         y="71.924568">恒</tspan></text><path
       sodipodi:type="star"
       style="fill:#67daff;fill-opacity:1;stroke:#000000;stroke-width:1.00157;stroke-miterlimit:4;stroke-dasharray:none;stroke-opacity:1"
       id="path28726"
       inkscape:flatsided="true"
       sodipodi:sides="6"
       sodipodi:cx="127"
       sodipodi:cy="443"
       sodipodi:r1="73.600273"
       sodipodi:r2="63.739704"
       sodipodi:arg1="2.6179939"
       sodipodi:arg2="3.1415927"
       inkscape:rounded="0"
       inkscape:randomized="0"
       d="m 63.260293,479.80014 2e-6,-73.60028 L 127,369.39973 l 63.73971,36.80013 0,73.60028 L 127,516.60027 Z"
       transform="matrix(0.11690422,0,0,0.11690422,123.82163,17.223525)"
       inkscape:transform-center-y="-1.5290786e-06" /><path
       sodipodi:type="star"
       style="fill:#67daff;fill-opacity:1;stroke:#000000;stroke-width:1.00157;stroke-miterlimit:4;stroke-dasharray:none;stroke-opacity:1"
       id="path30858"
       inkscape:flatsided="true"
       sodipodi:sides="6"
       sodipodi:cx="127"
       sodipodi:cy="443"
       sodipodi:r1="73.600273"
       sodipodi:r2="63.739704"
       sodipodi:arg1="2.6179939"
       sodipodi:arg2="3.1415927"
       inkscape:rounded="0"
       inkscape:randomized="0"
       d="m 63.260293,479.80014 2e-6,-73.60028 L 127,369.39973 l 63.73971,36.80013 0,73.60028 L 127,516.60027 Z"
       transform="matrix(0.11690422,0,0,0.11690422,131.27307,30.129805)" /><text
       xml:space="preserve"
       style="font-style:normal;font-variant:normal;font-weight:normal;font-stretch:normal;font-size:8.34233px;line-height:1.25;font-family:'Microsoft YaHei';-inkscape-font-specification:'Microsoft YaHei, Normal';font-variant-ligatures:normal;font-variant-caps:normal;font-variant-numeric:normal;font-variant-east-asian:normal;word-spacing:0px;stroke-width:0.391045"
       x="-150.26683"
       y="84.830826"
       id="text30862"
       transform="scale(-1,1)"><tspan
         sodipodi:role="line"
         id="tspan30860"
         style="font-style:normal;font-variant:normal;font-weight:normal;font-stretch:normal;font-size:8.34233px;font-family:'Microsoft YaHei';-inkscape-font-specification:'Microsoft YaHei, Normal';font-variant-ligatures:normal;font-variant-caps:normal;font-variant-numeric:normal;font-variant-east-asian:normal;stroke-width:0.391045"
         x="-150.26683"
         y="84.830826">威</tspan></text><path
       sodipodi:type="star"
       style="fill:#b3ff80;fill-opacity:1;stroke:#000000;stroke-width:1.00157;stroke-miterlimit:4;stroke-dasharray:none;stroke-opacity:1"
       id="path32212"
       inkscape:flatsided="true"
       sodipodi:sides="6"
       sodipodi:cx="127"
       sodipodi:cy="443"
       sodipodi:r1="73.600273"
       sodipodi:r2="63.739704"
       sodipodi:arg1="2.6179939"
       sodipodi:arg2="3.1415927"
       inkscape:rounded="0"
       inkscape:randomized="0"
       d="m 63.260293,479.80014 2e-6,-73.60028 L 127,369.39973 l 63.73971,36.80013 0,73.60028 L 127,516.60027 Z"
       transform="matrix(0.11690422,0,0,0.11690422,146.17595,4.3172437)"
       inkscape:transform-center-y="-1.4173342e-06" /><path
       sodipodi:type="star"
       style="fill:#67daff;fill-opacity:1;stroke:#000000;stroke-width:1.00157;stroke-miterlimit:4;stroke-dasharray:none;stroke-opacity:1"
       id="path32218"
       inkscape:flatsided="true"
       sodipodi:sides="6"
       sodipodi:cx="127"
       sodipodi:cy="443"
       sodipodi:r1="73.600273"
       sodipodi:r2="63.739704"
       sodipodi:arg1="2.6179939"
       sodipodi:arg2="3.1415927"
       inkscape:rounded="0"
       inkscape:randomized="0"
       d="m 63.260293,479.80014 2e-6,-73.60028 L 127,369.39973 l 63.73971,36.80013 0,73.60028 L 127,516.60027 Z"
       transform="matrix(0.11690422,0,0,0.11690422,161.07884,4.3172437)"
       inkscape:transform-center-y="-1.4173342e-06" /><text
       xml:space="preserve"
       style="font-size:8.34233px;line-height:1.25;font-family:sans-serif;word-spacing:0px;stroke-width:0.391045"
       x="171.73842"
       y="59.018288"
       id="text32222"><tspan
         sodipodi:role="line"
         id="tspan32220"
         style="stroke-width:0.391045"
         x="171.73842"
         y="59.018288">诚</tspan></text><path
       sodipodi:type="star"
       style="fill:#67daff;fill-opacity:1;stroke:#000000;stroke-width:1.00157;stroke-miterlimit:4;stroke-dasharray:none;stroke-opacity:1"
       id="path33244"
       inkscape:flatsided="true"
       sodipodi:sides="6"
       sodipodi:cx="127"
       sodipodi:cy="443"
       sodipodi:r1="73.600273"
       sodipodi:r2="63.739704"
       sodipodi:arg1="2.6179939"
       sodipodi:arg2="3.1415927"
       inkscape:rounded="0"
       inkscape:randomized="0"
       d="m 63.260293,479.80014 2e-6,-73.60028 L 127,369.39973 l 63.73971,36.80013 0,73.60028 L 127,516.60027 Z"
       transform="matrix(0.11690422,0,0,0.11690422,131.27307,4.3172437)"
       inkscape:transform-center-y="-1.0843988e-06" /><path
       sodipodi:type="star"
       style="fill:#67daff;fill-opacity:1;stroke:#000000;stroke-width:1.00157;stroke-miterlimit:4;stroke-dasharray:none;stroke-opacity:1"
       id="path164"
       inkscape:flatsided="true"
       sodipodi:sides="6"
       sodipodi:cx="127"
       sodipodi:cy="443"
       sodipodi:r1="73.600273"
       sodipodi:r2="63.739704"
       sodipodi:arg1="2.6179939"
       sodipodi:arg2="3.1415927"
       inkscape:rounded="0"
       inkscape:randomized="0"
       d="m 63.260293,479.80014 2e-6,-73.60028 L 127,369.39973 l 63.73971,36.80013 0,73.60028 L 127,516.60027 Z"
       transform="matrix(0.11690422,0,0,0.11690422,116.37019,30.129805)" /><text
       xml:space="preserve"
       style="font-style:normal;font-variant:normal;font-weight:normal;font-stretch:normal;font-size:8.34233px;line-height:1.25;font-family:'Microsoft YaHei';-inkscape-font-specification:'Microsoft YaHei, Normal';font-variant-ligatures:normal;font-variant-caps:normal;font-variant-numeric:normal;font-variant-east-asian:normal;word-spacing:0px;stroke-width:0.391045"
       x="164.36861"
       y="71.635895"
       id="text168"><tspan
         sodipodi:role="line"
         id="tspan166"
         style="font-style:normal;font-variant:normal;font-weight:normal;font-stretch:normal;font-size:8.34233px;font-family:'Microsoft YaHei';-inkscape-font-specification:'Microsoft YaHei, Normal';font-variant-ligatures:normal;font-variant-caps:normal;font-variant-numeric:normal;font-variant-east-asian:normal;stroke-width:0.391045"
         x="164.36861"
         y="71.635895">今</tspan></text><path
       sodipodi:type="star"
       style="fill:#b3ff80;fill-opacity:1;stroke:#000000;stroke-width:1.00157;stroke-miterlimit:4;stroke-dasharray:none;stroke-opacity:1"
       id="path170"
       inkscape:flatsided="true"
       sodipodi:sides="6"
       sodipodi:cx="127"
       sodipodi:cy="443"
       sodipodi:r1="73.600273"
       sodipodi:r2="63.739704"
       sodipodi:arg1="2.6179939"
       sodipodi:arg2="3.1415927"
       inkscape:rounded="0"
       inkscape:randomized="0"
       d="m 63.260293,479.80014 2e-6,-73.60028 L 127,369.39973 l 63.73971,36.80013 0,73.60028 L 127,516.60027 Z"
       transform="matrix(0.11690422,0,0,0.11690422,123.82163,43.036074)"
       inkscape:transform-center-x="-1.000024e-06" /><text
       xml:space="preserve"
       style="font-size:8.34233px;line-height:1.25;font-family:sans-serif;word-spacing:0px;stroke-width:0.391045"
       x="156.49965"
       y="58.842369"
       id="text174"><tspan
         sodipodi:role="line"
         id="tspan172"
         style="stroke-width:0.391045"
         x="156.49965"
         y="58.842369">维</tspan></text><circle
       style="fill:#67daff;fill-opacity:1;stroke:#000000;stroke-width:0.2;stroke-dasharray:none;stroke-dashoffset:0;stroke-opacity:1"
       id="circle7076"
       cx="216.71344"
       cy="61.256046"
       r="8.4133167" /><path
       id="circle8162"
       style="fill:#67daff;fill-opacity:1;stroke:#000000;stroke-width:0.2;stroke-dasharray:none;stroke-dashoffset:0"
       d="m 195.33168,120.14159 a 8.4133164,8.4133164 0 0 1 -8.41332,8.41332 8.4133164,8.4133164 0 0 1 -8.41332,-8.41332 8.4133164,8.4133164 0 0 1 8.41332,-8.41331 8.4133164,8.4133164 0 0 1 8.41332,8.41331 z" /><text
       xml:space="preserve"
       style="font-size:10.0483px;line-height:1.25;font-family:sans-serif;word-spacing:0px;fill:#000000;fill-opacity:1;stroke:#000000;stroke-width:0.0833566;stroke-dasharray:none"
       x="-188.15964"
       y="122.15081"
       id="text11322"
       transform="scale(-1,1)"><tspan
         sodipodi:role="line"
         id="tspan11320"
         style="fill:#000000;fill-opacity:1;stroke:#000000;stroke-width:0.0833566;stroke-dasharray:none"
         x="-188.15964"
         y="122.15081">+</tspan></text><text
       xml:space="preserve"
       style="font-size:8.67663px;line-height:1.25;font-family:sans-serif;word-spacing:0px;stroke:#000000;stroke-width:0.0719774;stroke-dasharray:none"
       x="178.91803"
       y="102.60606"
       id="text13232"
       transform="scale(1.1765016,0.84997761)"><tspan
         sodipodi:role="line"
         id="tspan13230"
         style="stroke:#000000;stroke-width:0.0719774;stroke-dasharray:none"
         x="178.91803"
         y="102.60606">Z</tspan></text><path
       inkscape:connector-curvature="0"
       id="path83921"
       style="fill:#67daff;fill-opacity:1;fill-rule:evenodd;stroke:#333333;stroke-width:0.27;stroke-linecap:butt;stroke-linejoin:miter;stroke-miterlimit:4;stroke-dasharray:none"
       d="m 25.795313,29.106373 c 0.77003,0 1.4714,0.2939 1.99825,0.775547 l 2.66461,-1.525111 c -0.17599,-0.33851 -0.27557,-0.723067 -0.27557,-1.130994 0,-0.472087 0.1333,-0.912984 0.36424,-1.287284 l -2.5609,-3.19905 c -0.22625,0.1184 -0.48376,0.18549 -0.75696,0.18549 -0.55288,0 -1.0417,-0.27457 -1.3376,-0.69462 l -4.37633,1.23697 c 0.0381,0.1701 0.0581,0.34696 0.0581,0.52842 0,0.45661 -0.12678,0.88343 -0.34733,1.24742 l 3.26796,4.163882 c 0.39284,-0.19253 0.83448,-0.30067 1.30143,-0.30067 z m 2.54322,1.442464 c 0.26628,0.444387 0.41933,0.964264 0.41933,1.519931 0,1.636091 -1.32644,2.962482 -2.96255,2.962482 -1.63595,0 -2.9624,-1.326391 -2.9624,-2.962482 0,-0.718107 0.25566,-1.376704 0.68086,-1.889461 l -3.19317,-4.068296 c -0.34395,0.1889 -0.73892,0.296377 -1.15901,0.296377 -1.3318,0 -2.41146,-1.079667 -2.41146,-2.411647 0,-1.3318 1.07966,-2.41147 2.41146,-2.41147 0.84591,0 1.58985,0.43559 2.0203,1.0945 l 4.41816,-1.24892 c -0.005,-0.0462 -0.007,-0.0928 -0.007,-0.13997 0,-0.90298 0.732,-1.63499 1.63495,-1.63499 0.9031,0 1.63512,0.73201 1.63512,1.63499 0,0.32072 -0.0927,0.61984 -0.25214,0.87237 l 2.50821,3.13321 c 0.41783,-0.32912 0.9451,-0.52541 1.51822,-0.52541 1.35626,0 2.45576,1.09949 2.45576,2.455754 0,1.356261 -1.0995,2.455795 -2.45576,2.455795 -0.63931,0 -1.22132,-0.244207 -1.65832,-0.644567 z" /><text
       xml:space="preserve"
       style="font-size:7.15724px;line-height:1.25;font-family:sans-serif;word-spacing:0px;fill:#1a1a1a;stroke-width:0.335495"
       x="34.74865"
       y="29.96315"
       id="text9989"
       transform="scale(1.1040021,0.90579538)"><tspan
         sodipodi:role="line"
         id="tspan9987"
         style="font-style:normal;font-variant:normal;font-weight:normal;font-stretch:normal;font-family:'Microsoft YaHei';-inkscape-font-specification:'Microsoft YaHei';fill:#1a1a1a;stroke-width:0.335495"
         x="34.74865"
         y="29.96315">维今时代</tspan></text><text
       xml:space="preserve"
       style="font-size:3.83586px;line-height:1.25;font-family:sans-serif;word-spacing:0px;fill:#333333;stroke-width:0.179807"
       x="35.988266"
       y="33.827427"
       id="text14881"
       transform="scale(1.0616668,0.94191511)"><tspan
         sodipodi:role="line"
         id="tspan14879"
         style="fill:#333333;stroke-width:0.179807"
         x="35.988266"
         y="33.827427">WJCKING:UNITY</tspan></text><text
       xml:space="preserve"
       style="font-size:3.175px;fill:none;stroke:#000000;stroke-width:0.505;stroke-dasharray:1.515, 0.505"
       x="39.6875"
       y="102.12917"
       id="text1"><tspan
         sodipodi:role="line"
         id="tspan1"
         style="stroke-width:0.505"
         x="39.6875"
         y="102.12917" /></text><text
       xml:space="preserve"
       style="font-size:9.32082px;line-height:1.25;font-family:sans-serif;word-spacing:0px;stroke:#000000;stroke-width:0.0773214;stroke-dasharray:none"
       x="-208.66553"
       y="68.788803"
       id="text8166"
       transform="scale(-1.0520153,0.95055653)"><tspan
         sodipodi:role="line"
         id="tspan8164"
         style="stroke:#000000;stroke-width:0.0773214;stroke-dasharray:none"
         x="-208.66553"
         y="68.788803">V</tspan></text><path
       style="fill:#666666;stroke:#666666;stroke-width:0.520127;stroke-dasharray:none;stroke-dashoffset:0"
       d="M 92.801273,18.207646 V 137.8444"
       id="path2" /><text
       xml:space="preserve"
       style="font-size:4.8362px;line-height:1.25;font-family:sans-serif;word-spacing:0px;fill:#000000;stroke-width:0.226698"
       x="17.397934"
       y="45.318634"
       id="text8"
       transform="scale(1.0062037,0.99383454)"><tspan
         sodipodi:role="line"
         style="font-style:normal;font-variant:normal;font-weight:normal;font-stretch:normal;font-family:'Microsoft YaHei';-inkscape-font-specification:'Microsoft YaHei';fill:#000000;stroke-width:0.226698"
         x="17.397934"
         y="45.318634"
         id="tspan8">艾萨卡:英特立尔</tspan><tspan
         sodipodi:role="line"
         style="font-style:normal;font-variant:normal;font-weight:normal;font-stretch:normal;font-family:'Microsoft YaHei';-inkscape-font-specification:'Microsoft YaHei';fill:#000000;stroke-width:0.226698"
         x="17.397934"
         y="51.485687"
         id="tspan14">斯瑞德 丝芮的 联和</tspan><tspan
         sodipodi:role="line"
         style="font-style:normal;font-variant:normal;font-weight:normal;font-stretch:normal;font-family:'Microsoft YaHei';-inkscape-font-specification:'Microsoft YaHei';fill:#000000;stroke-width:0.226698"
         x="17.397934"
         y="57.65274"
         id="tspan15">德瑞斯 德利丝 娱乐</tspan><tspan
         sodipodi:role="line"
         style="font-style:normal;font-variant:normal;font-weight:normal;font-stretch:normal;font-family:'Microsoft YaHei';-inkscape-font-specification:'Microsoft YaHei';fill:#000000;stroke-width:0.226698"
         x="17.397934"
         y="63.819794"
         id="tspan17">赛德环境检测</tspan><tspan
         sodipodi:role="line"
         style="font-style:normal;font-variant:normal;font-weight:normal;font-stretch:normal;font-family:'Microsoft YaHei';-inkscape-font-specification:'Microsoft YaHei';fill:#000000;stroke-width:0.226698"
         x="17.397934"
         y="69.986847"
         id="tspan18">赛德声像语言分析</tspan><tspan
         sodipodi:role="line"
         style="font-style:normal;font-variant:normal;font-weight:normal;font-stretch:normal;font-family:'Microsoft YaHei';-inkscape-font-specification:'Microsoft YaHei';fill:#000000;stroke-width:0.226698"
         x="17.397934"
         y="76.153893"
         id="tspan6">特瑞丝海泱检测</tspan></text><path
       d="m 189.88309,58.468131 -0.43178,0.480661 q -0.29329,-0.334019 -0.65989,-0.696552 -0.56213,0.940956 -1.52346,1.739343 -0.17923,-0.260697 -0.40734,-0.496955 0.96947,-0.749506 1.49494,-1.657875 -0.52954,-0.492882 -1.18536,-1.030571 0.26477,-1.270902 0.43993,-2.590684 h -0.65175 v -0.553983 h 0.72507 q 0.0937,-0.790241 0.15479,-1.596774 l 0.6273,0.04888 q -0.0896,0.802461 -0.19145,1.547894 h 1.44606 v 0.456221 q -0.0692,2.305546 -0.6436,3.592742 0.45215,0.403267 0.80654,0.757653 z m -0.18738,-1.336077 h 2.0978 q 0.0855,-0.444001 0.0937,-1.010204 h -1.84932 v -0.553983 h 4.49703 v 0.553983 h -2.02855 q -0.004,0.545836 -0.0896,1.010204 h 2.41961 v 0.553983 h -2.15076 q 0.75358,1.360517 2.28925,1.637508 -0.30143,0.35846 -0.48881,0.659892 -1.53567,-0.525469 -2.2811,-2.089656 -0.53769,1.446058 -2.54181,2.187417 -0.18737,-0.293285 -0.45622,-0.594717 1.92265,-0.553982 2.43182,-1.800444 h -1.94301 z m 0.55398,-4.782175 h 4.01638 v 2.688446 h -0.59472 v -0.342166 h -2.82694 v 0.342166 h -0.59472 z m 3.42166,0.553983 h -2.82694 v 1.238314 h 2.82694 z m -4.52148,1.311636 h -0.95317 q -0.18738,1.299415 -0.40734,2.411454 0.43993,0.35846 0.82283,0.684332 0.46436,-1.144626 0.53768,-3.095786 z"
       id="text19"
       style="font-size:8.34233px;line-height:1.25;word-spacing:0px;stroke-width:0.391045"
       aria-label="娱" /><text
       xml:space="preserve"
       style="font-size:4.23333px;line-height:1.25;font-family:sans-serif;letter-spacing:0px;stroke-width:0.264583"
       x="193.75146"
       y="28.31184"
       id="text2"><tspan
         sodipodi:role="line"
         id="tspan2"
         style="stroke-width:0.264583"
         x="193.75146"
         y="28.31184" /></text><text
       xml:space="preserve"
       style="font-size:8.34233px;line-height:1.25;font-family:sans-serif;word-spacing:0px;stroke-width:0.391045"
       x="-150.21231"
       y="59.018288"
       id="text32216"
       transform="scale(-1,1)"><tspan
         sodipodi:role="line"
         id="tspan32214"
         style="stroke-width:0.391045"
         x="-150.21231"
         y="59.018288">瑞</tspan></text><text
       xml:space="preserve"
       style="font-size:8.34233px;line-height:1.25;font-family:sans-serif;word-spacing:0px;stroke-width:0.391045"
       x="-194.81818"
       y="84.613258"
       id="text3"
       transform="scale(-1,1)"><tspan
         sodipodi:role="line"
         id="tspan3"
         style="stroke-width:0.391045"
         x="-194.81818"
         y="84.613258">恒</tspan></text><text
       xml:space="preserve"
       style="font-style:normal;font-variant:normal;font-weight:normal;font-stretch:normal;font-size:8.34233px;line-height:1.25;font-family:'Microsoft YaHei';-inkscape-font-specification:'Microsoft YaHei, Normal';font-variant-ligatures:normal;font-variant-caps:normal;font-variant-numeric:normal;font-variant-east-asian:normal;word-spacing:0px;stroke-width:0.391045"
       x="164.27493"
       y="97.827217"
       id="text4"><tspan
         sodipodi:role="line"
         id="tspan4"
         style="font-style:normal;font-variant:normal;font-weight:normal;font-stretch:normal;font-size:8.34233px;font-family:'Microsoft YaHei';-inkscape-font-specification:'Microsoft YaHei, Normal';font-variant-ligatures:normal;font-variant-caps:normal;font-variant-numeric:normal;font-variant-east-asian:normal;stroke-width:0.391045"
         x="164.27493"
         y="97.827217">代</tspan></text><text
       xml:space="preserve"
       style="font-style:normal;font-variant:normal;font-weight:normal;font-stretch:normal;font-size:8.34233px;line-height:1.25;font-family:'Microsoft YaHei';-inkscape-font-specification:'Microsoft YaHei, Normal';font-variant-ligatures:normal;font-variant-caps:normal;font-variant-numeric:normal;font-variant-east-asian:normal;word-spacing:0px;stroke-width:0.391045"
       x="171.79918"
       y="84.521278"
       id="text5"><tspan
         sodipodi:role="line"
         id="tspan5"
         style="font-style:normal;font-variant:normal;font-weight:normal;font-stretch:normal;font-size:8.34233px;font-family:'Microsoft YaHei';-inkscape-font-specification:'Microsoft YaHei, Normal';font-variant-ligatures:normal;font-variant-caps:normal;font-variant-numeric:normal;font-variant-east-asian:normal;stroke-width:0.391045"
         x="171.79918"
         y="84.521278">斯</tspan></text><text
       xml:space="preserve"
       style="font-size:8.34233px;line-height:1.25;font-family:sans-serif;word-spacing:0px;stroke-width:0.391045"
       x="134.82079"
       y="97.799431"
       id="text13903"><tspan
         sodipodi:role="line"
         id="tspan13901"
         style="stroke-width:0.391045"
         x="134.82079"
         y="97.799431">乐</tspan></text><text
       xml:space="preserve"
       style="font-size:8.34233px;line-height:1.25;font-family:sans-serif;word-spacing:0px;stroke-width:0.391045"
       x="134.22258"
       y="71.92572"
       id="text13873"><tspan
         sodipodi:role="line"
         id="tspan13871"
         style="stroke-width:0.391045"
         x="134.22258"
         y="71.92572">中</tspan></text><text
       xml:space="preserve"
       style="font-size:10.0483px;line-height:1.25;font-family:sans-serif;word-spacing:0px;fill:#000000;fill-opacity:1;stroke:#000000;stroke-width:0.0833566;stroke-dasharray:none"
       x="-191.83704"
       y="124.82529"
       id="text7"
       transform="scale(-1,1)"><tspan
         sodipodi:role="line"
         id="tspan7"
         style="fill:#000000;fill-opacity:1;stroke:#000000;stroke-width:0.0833566;stroke-dasharray:none"
         x="-191.83704"
         y="124.82529">+</tspan></text><text
       xml:space="preserve"
       style="font-size:8.34233px;line-height:1.25;font-family:sans-serif;word-spacing:0px;stroke-width:0.391045"
       x="126.66737"
       y="84.558014"
       id="text13897"><tspan
         sodipodi:role="line"
         id="tspan13895"
         style="stroke-width:0.391045"
         x="126.66737"
         y="84.558014">信</tspan></text><text
       xml:space="preserve"
       style="font-size:9.01383px;line-height:1.25;font-family:sans-serif;word-spacing:0px;stroke:#000000;stroke-width:0.074775;stroke-dasharray:none"
       x="173.30313"
       y="124.76046"
       id="text10"
       transform="scale(1.1631406,0.85974129)"><tspan
         sodipodi:role="line"
         id="tspan10"
         style="stroke:#000000;stroke-width:0.074775;stroke-dasharray:none"
         x="173.30313"
         y="124.76046">S</tspan></text><circle
       style="fill:#67daff;fill-opacity:1;stroke:#000000;stroke-width:0.269443;stroke-dasharray:none;stroke-dashoffset:0;stroke-opacity:1"
       id="circle11"
       cx="120.10813"
       cy="47.211609"
       r="11.334532" /><circle
       style="fill:#67daff;fill-opacity:1;stroke:#000000;stroke-width:0.2;stroke-dasharray:none;stroke-dashoffset:0;stroke-opacity:1"
       id="circle12"
       cx="330.49368"
       cy="122.65224"
       r="8.4133167" /><text
       xml:space="preserve"
       style="font-size:8.43823px;line-height:1.25;font-family:sans-serif;word-spacing:0px;stroke:#000000;stroke-width:0.07;stroke-dasharray:none"
       x="327.38367"
       y="126.09086"
       id="text16378"><tspan
         sodipodi:role="line"
         id="tspan16376"
         style="stroke:#000000;stroke-width:0.07;stroke-dasharray:none"
         x="327.38367"
         y="126.09086">S</tspan></text><path
       inkscape:connector-curvature="0"
       id="path12"
       style="fill:#55ddff;fill-opacity:1;fill-rule:evenodd;stroke:#000000;stroke-width:0.249508;stroke-linecap:butt;stroke-linejoin:miter;stroke-miterlimit:4;stroke-dasharray:none"
       d="m 120.16483,48.850009 c 0.58057,0 1.10938,0.22159 1.50661,0.58474 l 2.00901,-1.14988 c -0.13269,-0.25523 -0.20777,-0.54517 -0.20777,-0.85273 0,-0.35594 0.10051,-0.68836 0.27463,-0.97056 l -1.93083,-2.41196 c -0.17058,0.0893 -0.36473,0.13984 -0.57072,0.13984 -0.41684,0 -0.7854,-0.20701 -1.0085,-0.52371 l -3.29959,0.93263 c 0.0288,0.12825 0.0438,0.2616 0.0438,0.39841 0,0.34427 -0.0956,0.66607 -0.26187,0.94051 l 2.46393,3.13941 c 0.29618,-0.14516 0.62917,-0.2267 0.98123,-0.2267 z m 1.91749,1.08757 c 0.20077,0.33505 0.31616,0.72701 0.31616,1.14597 0,1.23355 -1.00008,2.2336 -2.23365,2.2336 -1.23345,0 -2.23354,-1.00005 -2.23354,-2.2336 0,-0.54143 0.19276,-1.03798 0.51334,-1.42459 l -2.40753,-3.06734 c -0.25933,0.14242 -0.55712,0.22346 -0.87386,0.22346 -1.00412,0 -1.81815,-0.81403 -1.81815,-1.81829 0,-1.00413 0.81403,-1.81816 1.81815,-1.81816 0.63779,0 1.19869,0.32842 1.52324,0.82522 l 3.33113,-0.94165 c -0.004,-0.0349 -0.005,-0.07 -0.005,-0.10553 0,-0.68082 0.5519,-1.23272 1.23269,-1.23272 0.6809,0 1.23282,0.5519 1.23282,1.23272 0,0.24181 -0.0699,0.46734 -0.19011,0.65773 l 1.8911,2.36233 c 0.31503,-0.24815 0.71257,-0.39614 1.14469,-0.39614 1.02256,0 1.85155,0.82897 1.85155,1.85154 0,1.02258 -0.82899,1.85158 -1.85155,1.85158 -0.48202,0 -0.92084,-0.18412 -1.25032,-0.48597 z" /></g></svg>
