<?xml version="1.0" encoding="UTF-8" standalone="no"?>
<svg
   version="1.1"
   width="297mm"
   height="178mm"
   id="svg46420"
   viewBox="0 0 1122.5197 672.75571"
   sodipodi:docname="DELIS.svg"
   inkscape:version="1.3 (0e150ed6c4, 2023-07-21)"
   xmlns:inkscape="http://www.inkscape.org/namespaces/inkscape"
   xmlns:sodipodi="http://sodipodi.sourceforge.net/DTD/sodipodi-0.dtd"
   xmlns="http://www.w3.org/2000/svg"
   xmlns:svg="http://www.w3.org/2000/svg"
   xmlns:rdf="http://www.w3.org/1999/02/22-rdf-syntax-ns#"
   xmlns:cc="http://creativecommons.org/ns#"
   xmlns:dc="http://purl.org/dc/elements/1.1/">
  <metadata
     id="metadata46426">
    <rdf:RDF>
      <cc:Work
         rdf:about="">
        <dc:format>image/svg+xml</dc:format>
        <dc:type
           rdf:resource="http://purl.org/dc/dcmitype/StillImage" />
      </cc:Work>
    </rdf:RDF>
  </metadata>
  <defs
     id="defs46424" />
  <sodipodi:namedview
     pagecolor="#ffffff"
     bordercolor="#666666"
     borderopacity="1"
     objecttolerance="10"
     gridtolerance="10"
     guidetolerance="10"
     inkscape:pageopacity="0"
     inkscape:pageshadow="2"
     inkscape:window-width="1854"
     inkscape:window-height="1057"
     id="namedview46422"
     showgrid="false"
     inkscape:zoom="1.1224747"
     inkscape:cx="469.94378"
     inkscape:cy="362.14625"
     inkscape:window-x="58"
     inkscape:window-y="-8"
     inkscape:window-maximized="1"
     inkscape:current-layer="svg46420"
     inkscape:showpageshadow="2"
     inkscape:pagecheckerboard="0"
     inkscape:deskcolor="#d1d1d1"
     inkscape:document-units="mm" />
  <path
     d="m 179.19204,188.92061 a 51.404175,47.593926 0 0 1 -51.40419,47.59435 51.404175,47.593926 0 1 1 51.40419,-47.59435 z"
     style="fill:#ffec00;fill-rule:evenodd;stroke:#000000;stroke-width:1.5757;stroke-linecap:butt;stroke-linejoin:miter;stroke-dasharray:none"
     id="path46173"
     inkscape:connector-curvature="0" />
  <path
     d="m 154.48544,201.37509 a 26.81936,20.693088 0 0 1 -53.6383,0 h 26.81936 z"
     style="fill:#333333;fill-rule:evenodd;stroke:#000000;stroke-width:1.5757;stroke-linecap:butt;stroke-linejoin:miter;stroke-dasharray:none"
     id="path46183"
     inkscape:connector-curvature="0" />
  <path
     d="m 131.85568,201.37421 v 10.85952 h 11.73345 v -10.85952 z"
     style="fill:#ffffff;fill-rule:evenodd;stroke:#ffffff;stroke-width:1.5757;stroke-linecap:butt;stroke-linejoin:miter;stroke-dasharray:none"
     id="path46187"
     inkscape:connector-curvature="0" />
  <path
     d="m 110.06481,201.37421 v 10.85952 h 11.73344 v -10.85952 z"
     style="fill:#ffffff;fill-rule:evenodd;stroke:#ffffff;stroke-width:1.5757;stroke-linecap:butt;stroke-linejoin:miter;stroke-dasharray:none"
     id="path46185"
     inkscape:connector-curvature="0" />
  <path
     d="m 376.36562,189.38196 a 51.404175,47.593926 0 0 1 -51.40418,47.59437 51.404175,47.593926 0 1 1 51.40418,-47.59437 z"
     style="fill:#ffec00;fill-rule:evenodd;stroke:#000000;stroke-width:1.5757;stroke-linecap:butt;stroke-linejoin:miter;stroke-dasharray:none"
     id="path1"
     inkscape:connector-curvature="0" />
  <path
     d="m 352.0655,201.83645 a 26.81936,20.693088 0 0 1 -53.63829,0 h 26.81937 z"
     style="fill:#333333;fill-rule:evenodd;stroke:#000000;stroke-width:1.14732;stroke-linecap:butt;stroke-linejoin:miter;stroke-dasharray:none"
     id="path6"
     inkscape:connector-curvature="0" />
  <path
     d="m 278.85278,-129.25561 c 3.35922,3.136 13.52902,8.88439 15.38793,13.65276 l -1.72186,0.33267 c -7.20545,-0.45541 -10.77824,-13.06728 -21.63864,-10.404 -9.59595,2.35325 -5.13696,12.22631 -3.75477,17.13607 1.74648,6.19748 0.12576,2.22052 3.71219,6.59069 l -3.85057,1.23551 c -2.04519,0.54689 -2.27141,0.22287 -4.40011,1.230523 -2.637,1.24681 -3.89881,3.35423 -4.04117,5.9593 -0.44377,8.11627 6.3851,7.02215 11.80284,9.3977 2.69189,7.45161 -0.83565,25.55274 29.00744,25.97953 8.21907,0.11646 17.51529,-2.26874 21.93437,-6.08338 6.72076,-5.80163 6.57006,-10.95588 8.27829,-19.80302 6.29729,-0.49733 11.66612,-2.56781 11.45487,-8.42033 -0.25881,-7.16885 -6.82888,-6.24971 -12.05632,-8.445283 1.72484,-3.46567 0.92214,-1.156 1.75643,-2.96468 0.70127,-1.52326 0.56022,-1.2691 1.12742,-3.28238 1.62471,-5.76336 5.84119,-15.97241 -3.0126,-18.35793 -13.59455,-3.66293 -15.22193,14.20864 -23.9207,9.90034 l 16.2891,-13.65276 c -15.14408,-10.78456 -33.91951,-8.93895 -42.35414,0 z"
     style="fill:#9900cc;fill-rule:evenodd;stroke:#000000;stroke-width:1.19658;stroke-linecap:butt;stroke-linejoin:miter;stroke-dasharray:none"
     id="path46112"
     inkscape:connector-curvature="0" />
  <g
     id="Layer1218"
     transform="matrix(3.3266169,0,0,3.3266169,-294.50758,-184.28551)">
    <path
       d="m 175.1896,27.955 c -0.3799,-0.068 -1.6713,0.8121 -3.6557,-0.8528 -0.3387,-0.2842 -0.628,-0.736 -0.9893,-0.8449 0.1088,0.4155 0.4343,0.6554 0.7517,0.9377 2.1701,1.9303 4.8529,1.4131 6.4952,-0.9721 0.3691,-0.5362 0.2965,-0.658 0.4841,-1.3786 l 0.6075,-0.0543 c 0.212,0.5204 0.0787,0.678 0.5035,1.4048 0.5436,0.9299 1.9572,1.9168 2.9559,2.1057 1.7976,0.3401 4.1742,-1.0917 4.4074,-1.9701 -0.5579,0.0044 -2.2925,2.5793 -4.7408,1.5931 1.1428,-0.0034 2.0115,-0.0205 2.9411,-0.6674 0.8361,-0.582 1.4569,-1.2457 1.4564,-2.975 l -15.6207,0.0029 c 0.0169,1.6281 0.6155,2.3845 1.4314,2.9575 1.1177,0.7851 1.701,0.5791 2.9723,0.7135 z"
       style="fill:#030303;fill-rule:evenodd"
       id="path46114"
       inkscape:connector-curvature="0" />
    <path
       d="m 186.0348,24.7965 -2.0281,-0.001 c -1.2015,3e-4 -0.4367,0.1172 -0.9905,0.4862 -0.6553,0.4367 -0.9462,-0.3423 -1.0474,-0.4149 -0.2442,-0.1752 -2.2437,-0.0902 -2.6439,-0.0431 0.3606,3.397 6.2506,3.5704 6.7099,-0.0272 z"
       style="fill:#fefefe;fill-rule:evenodd"
       id="path46116"
       inkscape:connector-curvature="0" />
    <path
       d="m 177.8835,24.7961 -2.9944,-4e-4 c -0.3928,0.0965 -0.1004,0.569 -0.7815,0.577 -0.6221,0.0074 -0.5275,-0.5079 -0.7815,-0.5769 l -2.1613,0.0036 c 0.3889,3.5095 6.3433,3.4949 6.7187,-0.0033 z"
       style="fill:#fefefe;fill-rule:evenodd"
       id="path46118"
       inkscape:connector-curvature="0" />
  </g>
  <g
     id="Layer1219"
     transform="matrix(3.3266169,0,0,3.3266169,-294.50758,-184.28551)">
    <path
       d="m 172.3741,30.1907 a 6.3663,5.5336 0 0 0 12.7326,0 h -6.3663 z"
       style="fill:#1a1a1a;fill-rule:evenodd"
       id="path46121"
       inkscape:connector-curvature="0" />
    <path
       d="m 178.7399,30.9506 h 5.3918 c 0,0.6046 -0.1799,1.1779 -0.5014,1.6921 -0.3862,0.0968 -0.3441,-0.6205 -0.9256,-0.096 -0.9813,0.8857 -0.6334,-0.4656 -1.4181,0.1586 -1.0329,0.8208 -0.616,-0.4972 -1.4386,0.0758 -1.0807,0.7522 -0.6006,-0.5287 -1.4548,-0.0076 -1.1172,0.6811 -0.5843,-0.5571 -1.4647,-0.092 -1.1545,0.6096 -0.5658,-0.5864 -1.4708,-0.1769 -1.1899,0.5393 -0.5422,-0.6168 -1.4709,-0.261 -0.1199,0.0459 -0.2211,0.0763 -0.3072,0.0946 -0.214,-0.4325 -0.331,-0.8999 -0.331,-1.3876 z m 4.8904,1.6921 c -0.8575,1.3712 -2.7243,2.3221 -4.8904,2.3221 -2.3223,0 -4.3016,-1.0936 -5.0603,-2.6266 0.0861,-0.0183 0.1873,-0.0487 0.3072,-0.0946 0.9287,-0.3558 0.281,0.8003 1.4709,0.261 0.905,-0.4095 0.3163,0.7865 1.4708,0.1769 0.8804,-0.4651 0.3475,0.7731 1.4647,0.092 0.8542,-0.5211 0.3741,0.7598 1.4548,0.0076 0.8226,-0.573 0.4057,0.745 1.4386,-0.0758 0.7847,-0.6242 0.4368,0.7271 1.4181,-0.1586 0.5815,-0.5245 0.5394,0.1928 0.9256,0.096 z"
       style="fill:#ffffff;fill-rule:evenodd;stroke:#000000;stroke-width:0.4799;stroke-linecap:butt;stroke-linejoin:miter;stroke-dasharray:none"
       id="path46123"
       inkscape:connector-curvature="0" />
  </g>
  <path
     d="m 270.11243,-87.623677 a 6.8411876,4.828917 0 0 1 0,-9.6575 v 4.82893 z"
     style="fill:#1a1a1a;fill-rule:evenodd;stroke-width:3.32662"
     id="path46134"
     inkscape:connector-curvature="0" />
  <path
     d="m 329.92232,-86.769397 a 6.8411876,4.828917 0 0 0 0,-9.65782 v 4.82891 z"
     style="fill:#1a1a1a;fill-rule:evenodd;stroke-width:3.32662"
     id="path46136"
     inkscape:connector-curvature="0" />
  <g
     id="Layer1220"
     transform="matrix(3.3266169,0,0,3.3266169,-294.50758,-184.28551)">
    <path
       d="m 186.6666,22.2948 -1.0182,-2.1627 c 1.9716,-0.3418 3.2762,-0.7033 4.6782,-1.4264 l 3.5954,-2.1233 c -0.0738,0.7278 -1.5645,2.8704 -2.4448,3.6314 -0.5939,0.5134 -1.2696,0.8335 -2.1078,1.1951 -0.52,0.2242 -2.0858,0.8042 -2.7028,0.8859 z"
       style="fill:#1a1a1a;fill-rule:evenodd;stroke:#000000;stroke-width:0.7197;stroke-linecap:butt;stroke-linejoin:miter;stroke-dasharray:none"
       id="path46138"
       inkscape:connector-curvature="0" />
    <path
       d="m 185.2185,18.9678 1.8972,3.84 -1.564,1.2147 -1.8972,-3.84 z"
       style="fill:#9900cc;fill-rule:evenodd"
       id="path46140"
       inkscape:connector-curvature="0" />
  </g>
  <g
     id="Layer1221"
     transform="matrix(3.3266169,0,0,3.3266169,-294.50758,-184.28551)">
    <path
       d="m 170.9352,21.9166 1.0182,-2.1626 c -1.9716,-0.3419 -3.2762,-0.7034 -4.6783,-1.4265 l -3.5953,-2.1233 c 0.0738,0.7279 1.5645,2.8705 2.4448,3.6314 0.5939,0.5134 1.2695,0.8335 2.1078,1.1951 0.52,0.2242 2.0858,0.8042 2.7028,0.8859 z"
       style="fill:#1a1a1a;fill-rule:evenodd;stroke:#000000;stroke-width:0.7197;stroke-linecap:butt;stroke-linejoin:miter;stroke-dasharray:none"
       id="path46143"
       inkscape:connector-curvature="0" />
    <path
       d="m 172.3833,18.5896 -1.8972,3.8401 1.564,1.2147 1.8972,-3.8401 z"
       style="fill:#9900cc;fill-rule:evenodd"
       id="path46145"
       inkscape:connector-curvature="0" />
  </g>
  <path
     d="M 94.026106,185.05647 C 82.886692,175.94745 105.86163,151.46558 119.0665,168.43691 131.2402,184.0796 105.16597,194.1655 94.026106,185.05647 Z"
     style="fill:#ffffff;fill-rule:evenodd;stroke:#000000;stroke-width:1.5757;stroke-linecap:butt;stroke-linejoin:miter;stroke-dasharray:none"
     id="path46175"
     inkscape:connector-curvature="0" />
  <path
     d="m 116.64973,172.82977 a 6.5380486,5.785461 0 0 1 -6.53804,5.78547 6.5380486,5.785461 0 1 1 6.53804,-5.78547 z"
     style="fill:#000000;fill-rule:evenodd;stroke:#1a1a1a;stroke-width:1.5757;stroke-linecap:butt;stroke-linejoin:miter;stroke-dasharray:none"
     id="path46177"
     inkscape:connector-curvature="0" />
  <path
     d="m 161.26399,186.53712 c -9.46342,9.48707 -41.11678,-8.42565 -21.99238,-21.59112 15.8153,-10.88665 31.45842,12.10318 21.99238,21.59112 z"
     style="fill:#ffffff;fill-rule:evenodd;stroke:#000000;stroke-width:1.5757;stroke-linecap:butt;stroke-linejoin:miter;stroke-dasharray:none"
     id="path46179"
     inkscape:connector-curvature="0" />
  <path
     d="m 149.73862,172.31813 a 6.2353489,5.3649233 0 0 1 -6.23577,5.36448 6.2353489,5.3649233 0 1 1 6.23577,-5.36448 z"
     style="fill:#000000;fill-rule:evenodd;stroke:#1a1a1a;stroke-width:1.5757;stroke-linecap:butt;stroke-linejoin:miter;stroke-dasharray:none"
     id="path46181"
     inkscape:connector-curvature="0" />
  <g
     id="Layer1224"
     transform="matrix(4.380602,0,0,4.380602,-434.56885,118.60406)">
    <path
       d="m 117.2312,9.4206 c 0.4438,-4.0341 3.3688,-6.8552 10.2182,-7.2229 7.4756,-0.0062 11.4435,2.9105 11.9038,7.6351 l -9.2154,0.6623 -8.278,-0.0656 c -2.6508,-0.0284 -4.113,-0.4116 -4.6286,-1.0089 z"
       style="fill:#1063aa;fill-rule:evenodd;stroke:#1b1918;stroke-width:0.3597;stroke-linecap:butt;stroke-linejoin:miter;stroke-dasharray:none"
       id="path46189"
       inkscape:connector-curvature="0" />
    <path
       d="m 130.2419,10.4915 c 10.0964,0.2091 18.6969,0.1688 18.5352,-0.4533 -2.5958,-0.3455 -4.637,-0.5758 -9.6466,-1.0057 l -4.1596,0.9401 z"
       style="fill:#1063aa;fill-rule:evenodd;stroke:#1b1918;stroke-width:0.3597;stroke-linecap:butt;stroke-linejoin:miter;stroke-dasharray:none"
       id="path46191"
       inkscape:connector-curvature="0" />
    <path
       d="m 132.7524,10.2518 c 10.0964,0.1474 15.4572,0.0885 15.2955,-0.3498 -2.5958,-0.2435 -3.9908,-0.47 -8.9174,-0.8695 l -3.1029,0.6624 z"
       style="fill:#1063aa;fill-rule:evenodd;stroke:#1b1918;stroke-width:0.3597;stroke-linecap:butt;stroke-linejoin:miter;stroke-dasharray:none"
       id="path46193"
       inkscape:connector-curvature="0" />
    <path
       d="m 134.1859,9.9806 c -0.2375,-3.3232 -3.7997,-6.2338 -6.9349,-7.7829 -3.1935,1.8062 -5.0145,5.0316 -5.463,8.257"
       style="fill:#1063aa;fill-rule:evenodd;stroke:#1b1918;stroke-width:0.3597;stroke-linecap:butt;stroke-linejoin:miter;stroke-dasharray:none"
       id="path46195"
       inkscape:connector-curvature="0" />
    <path
       d="m 127.99,2.1122 c -0.009,-0.1065 -0.3478,-0.1926 -0.7617,-0.1926 -0.414,0 -0.7526,0.0861 -0.7618,0.1926 h -0.0131 v 0.2029 c 0.5255,0.1023 1.0414,0.1023 1.548,0 V 2.1122 Z"
       style="fill:#1063aa;fill-rule:evenodd;stroke:#1b1918;stroke-width:0.3597;stroke-linecap:butt;stroke-linejoin:miter;stroke-dasharray:none"
       id="path46197"
       inkscape:connector-curvature="0" />
  </g>
  <path
     d="m 118.42602,500.61438 h 15.52502 l 5.17685,5.53965 -5.17685,5.54012 h -15.52502 z"
     style="fill:#ffffff;fill-rule:evenodd;stroke-width:4.6041"
     id="path46201"
     inkscape:connector-curvature="0" />
  <path
     d="m 183.09013,526.63261 a 53.815931,49.931913 0 0 1 -53.81594,49.93191 53.815931,49.931913 0 1 1 53.81594,-49.93191 z"
     style="fill:#e30016;fill-rule:evenodd;stroke:#000000;stroke-width:2.20951;stroke-linecap:butt;stroke-linejoin:miter;stroke-dasharray:none"
     id="path46203"
     inkscape:connector-curvature="0" />
  <g
     id="Layer1226"
     transform="matrix(4.6040989,0,0,4.6040989,-276.40493,42.623486)">
    <path
       d="m 77.1637,98.4061 c 0.442,-4.0268 3.3556,-6.8428 10.1783,-7.2098 7.4464,-0.0062 11.3989,2.9052 11.8574,7.6213 l -9.1795,0.6611 -8.2457,-0.0655 c -2.6404,-0.0284 -4.0969,-0.4108 -4.6105,-1.0071 z"
       style="fill:#1063aa;fill-rule:evenodd;stroke:#1b1918;stroke-width:0.4799;stroke-linecap:butt;stroke-linejoin:miter;stroke-dasharray:none"
       id="path46205"
       inkscape:connector-curvature="0" />
    <path
       d="m 90.1236,99.4751 c 10.0569,0.2087 18.6239,0.1684 18.4629,-0.4525 -2.5857,-0.3449 -4.6189,-0.5747 -9.609,-1.0039 l -4.1434,0.9385 z"
       style="fill:#1063aa;fill-rule:evenodd;stroke:#1b1918;stroke-width:0.4799;stroke-linecap:butt;stroke-linejoin:miter;stroke-dasharray:none"
       id="path46207"
       inkscape:connector-curvature="0" />
    <path
       d="m 92.6243,99.2359 c 10.057,0.147 15.3968,0.0883 15.2358,-0.3492 -2.5856,-0.2431 -3.9752,-0.4692 -8.8826,-0.868 L 95.8867,98.68 Z"
       style="fill:#1063aa;fill-rule:evenodd;stroke:#1b1918;stroke-width:0.4799;stroke-linecap:butt;stroke-linejoin:miter;stroke-dasharray:none"
       id="path46209"
       inkscape:connector-curvature="0" />
    <path
       d="m 94.0522,98.9651 c -0.2366,-3.3172 -3.7849,-6.2225 -6.9079,-7.7688 -3.181,1.8029 -4.9949,5.0225 -5.4417,8.242"
       style="fill:#1063aa;fill-rule:evenodd;stroke:#1b1918;stroke-width:0.4799;stroke-linecap:butt;stroke-linejoin:miter;stroke-dasharray:none"
       id="path46211"
       inkscape:connector-curvature="0" />
    <path
       d="m 87.8805,91.1109 c -0.0091,-0.1062 -0.3465,-0.1922 -0.7588,-0.1922 -0.4123,0 -0.7496,0.086 -0.7588,0.1922 h -0.013 v 0.2025 c 0.5234,0.1021 1.0373,0.1021 1.542,0 v -0.2025 z"
       style="fill:#1063aa;fill-rule:evenodd;stroke:#1b1918;stroke-width:0.4799;stroke-linecap:butt;stroke-linejoin:miter;stroke-dasharray:none"
       id="path46213"
       inkscape:connector-curvature="0" />
  </g>
  <path
     d="m 165.81002,510.09791 a 12.818821,16.673399 67.2469 0 1 -30.77932,12.83116 l 15.38966,-6.41581 z"
     style="fill:#ffffff;fill-rule:evenodd;stroke:#000000;stroke-width:1.65609;stroke-linecap:butt;stroke-linejoin:miter;stroke-dasharray:none"
     id="path46216"
     inkscape:connector-curvature="0" />
  <path
     d="m 152.5737,520.78402 a 4.777213,4.1188269 0 0 1 -4.77722,4.11883 4.777213,4.1188269 0 1 1 4.77722,-4.11883 z"
     style="fill:#e30016;fill-rule:evenodd;stroke:#1a1a1a;stroke-width:2.20951;stroke-linecap:butt;stroke-linejoin:miter;stroke-dasharray:none"
     id="path46218"
     inkscape:connector-curvature="0" />
  <path
     d="m 92.936344,510.09791 a 16.673613,12.818986 22.7531 0 0 30.779786,12.83116 l -15.38966,-6.41581 z"
     style="fill:#ffffff;fill-rule:evenodd;stroke:#000000;stroke-width:1.65609;stroke-linecap:butt;stroke-linejoin:miter;stroke-dasharray:none"
     id="path46220"
     inkscape:connector-curvature="0" />
  <path
     d="m 108.44341,521.53679 a 4.777213,4.1188269 0 0 0 4.77721,4.11883 4.777213,4.1188269 0 1 0 -4.77721,-4.11883 z"
     style="fill:#e30016;fill-rule:evenodd;stroke:#1a1a1a;stroke-width:2.20951;stroke-linecap:butt;stroke-linejoin:miter;stroke-dasharray:none"
     id="path46222"
     inkscape:connector-curvature="0" />
  <path
     d="m 87.080391,501.63557 -1.593018,7.78231 38.810247,12.57333 1.59302,-7.78277 z"
     style="fill:#000000;fill-rule:evenodd;stroke:#000000;stroke-width:1.10406;stroke-linecap:butt;stroke-linejoin:miter;stroke-dasharray:none"
     id="path46224"
     inkscape:connector-curvature="0" />
  <path
     d="m 171.97813,500.36714 1.83796,7.72798 -38.39404,13.79757 -1.83796,-7.72798 z"
     style="fill:#000000;fill-rule:evenodd;stroke:#000000;stroke-width:1.10406;stroke-linecap:butt;stroke-linejoin:miter;stroke-dasharray:none"
     id="path46226"
     inkscape:connector-curvature="0" />
  <g
     id="Layer1227"
     transform="matrix(4.6040989,0,0,4.6040989,-276.40493,42.623486)">
    <path
       d="m 83.7626,110.4199 c 0.2285,-0.153 0.4837,-0.3037 0.7626,-0.4502 l 0.1164,1.5862 z"
       style="fill:#ffffff;fill-rule:evenodd;stroke:#1b1918;stroke-width:0.3597;stroke-linecap:butt;stroke-linejoin:miter;stroke-dasharray:none"
       id="path46228"
       inkscape:connector-curvature="0" />
    <path
       d="m 83.0979,110.9422 c 0.1701,-0.1614 0.3725,-0.3226 0.6042,-0.4815 l 0.1945,1.4625 z"
       style="fill:#ffffff;fill-rule:evenodd;stroke:#1b1918;stroke-width:0.3597;stroke-linecap:butt;stroke-linejoin:miter;stroke-dasharray:none"
       id="path46230"
       inkscape:connector-curvature="0" />
    <path
       d="m 82.6052,111.5713 c 0.0855,-0.1707 0.2137,-0.3441 0.3806,-0.5178 l 0.2519,1.2462 z"
       style="fill:#ffffff;fill-rule:evenodd;stroke:#1b1918;stroke-width:0.3597;stroke-linecap:butt;stroke-linejoin:miter;stroke-dasharray:none"
       id="path46232"
       inkscape:connector-curvature="0" />
    <path
       d="m 82.6284,112.5191 c -0.0636,-0.0947 -0.1078,-0.1957 -0.1302,-0.3031 -0.0141,-0.0679 -0.0189,-0.1369 -0.0157,-0.2067 z"
       style="fill:#ffffff;fill-rule:evenodd;stroke:#1b1918;stroke-width:0.3597;stroke-linecap:butt;stroke-linejoin:miter;stroke-dasharray:none"
       id="path46234"
       inkscape:connector-curvature="0" />
    <path
       d="m 94.8862,108.609 c 0.1822,0.0808 0.3387,0.1724 0.4663,0.2747 l -0.192,0.6862 z"
       style="fill:#ffffff;fill-rule:evenodd;stroke:#1b1918;stroke-width:0.3597;stroke-linecap:butt;stroke-linejoin:miter;stroke-dasharray:none"
       id="path46236"
       inkscape:connector-curvature="0" />
    <path
       d="m 93.9067,108.3205 c 0.2509,0.0471 0.4807,0.1058 0.6866,0.1752 l -0.2622,1.0359 z"
       style="fill:#ffffff;fill-rule:evenodd;stroke:#1b1918;stroke-width:0.3597;stroke-linecap:butt;stroke-linejoin:miter;stroke-dasharray:none"
       id="path46238"
       inkscape:connector-curvature="0" />
    <path
       d="m 92.8853,108.1978 c 0.2982,0.0188 0.579,0.0493 0.8395,0.0911 l -0.2885,1.2496 z"
       style="fill:#ffffff;fill-rule:evenodd;stroke:#1b1918;stroke-width:0.3597;stroke-linecap:butt;stroke-linejoin:miter;stroke-dasharray:none"
       id="path46240"
       inkscape:connector-curvature="0" />
    <path
       d="m 91.8233,108.1792 c 0.3341,-0.008 0.6539,-0.004 0.9569,0.0125 l -0.2952,1.4003 z"
       style="fill:#ffffff;fill-rule:evenodd;stroke:#1b1918;stroke-width:0.3597;stroke-linecap:butt;stroke-linejoin:miter;stroke-dasharray:none"
       id="path46242"
       inkscape:connector-curvature="0" />
    <path
       d="m 90.7278,108.2451 c 0.3614,-0.0341 0.7117,-0.0554 1.0481,-0.0646 l -0.2893,1.5128 z"
       style="fill:#ffffff;fill-rule:evenodd;stroke:#1b1918;stroke-width:0.3597;stroke-linecap:butt;stroke-linejoin:miter;stroke-dasharray:none"
       id="path46244"
       inkscape:connector-curvature="0" />
    <path
       d="m 90.7235,108.2455 0.0043,-4e-4 0.7588,1.4482 0.2893,-1.5128 0.0474,-10e-4 0.6617,1.4128 0.2952,-1.4003 0.1051,0.006 0.551,1.3407 0.2885,-1.2496 c 0.0618,0.01 0.1225,0.0203 0.1819,0.0316 l 0.4244,1.2111 0.2622,-1.0359 c 0.1038,0.035 0.2017,0.0728 0.2929,0.1133 l 0.2743,0.9609 0.192,-0.6862 c 0.2036,0.1629 0.3339,0.3528 0.3786,0.5676 0.1238,0.5954 -0.4318,1.2768 -1.4404,1.91 -1.1154,0.7004 -2.7848,1.3418 -4.7037,1.7427 -1.9192,0.4009 -3.7057,0.4815 -5.0073,0.286 -0.9643,-0.1447 -1.6624,-0.441 -1.9513,-0.8709 l -0.1459,-0.5098 c 0.0065,-0.1427 0.0483,-0.2893 0.1227,-0.438 l 0.6325,0.7284 -0.2519,-1.2462 c 0.0356,-0.0372 0.073,-0.0742 0.1121,-0.1113 l 0.7987,0.981 -0.1945,-1.4625 0.0605,-0.0408 0.879,1.136 -0.1164,-1.5862 0.0182,-0.01 0.9212,1.244 -0.0334,-1.6348 0.9267,1.3029 0.0453,-1.639 0.9103,1.3319 0.1185,-1.6381 0.8921,1.3606 0.1872,-1.633 0.8711,1.389 0.2443,-1.6221 0.8227,1.4221 z"
       style="fill:#e30016;fill-rule:evenodd;stroke:#1b1918;stroke-width:0.3597;stroke-linecap:butt;stroke-linejoin:miter;stroke-dasharray:none"
       id="path46246"
       inkscape:connector-curvature="0" />
    <path
       d="m 88.6532,108.6156 c 0.7185,-0.1501 1.4183,-0.2551 2.0812,-0.3178 l -0.2741,1.598 -0.8227,-1.4221 -0.2443,1.6222 -0.8711,-1.3891 -0.1872,1.6331 -0.8921,-1.3607 -0.1185,1.6381 -0.9103,-1.3319 -0.0453,1.639 -0.9267,-1.3029 0.0334,1.6348 -0.9212,-1.244 c 1.076,-0.5625 2.5012,-1.0629 4.0989,-1.3967 z"
       style="fill:#ffffff;fill-rule:evenodd;stroke:#1b1918;stroke-width:0.3597;stroke-linecap:butt;stroke-linejoin:miter;stroke-dasharray:none"
       id="path46248"
       inkscape:connector-curvature="0" />
    <path
       d="m 82.9966,112.8704 c -0.1146,-0.0763 -0.2115,-0.1592 -0.2893,-0.2488 l 0.108,-0.3863 z"
       style="fill:#ffffff;fill-rule:evenodd;stroke:#1b1918;stroke-width:0.3597;stroke-linecap:butt;stroke-linejoin:miter;stroke-dasharray:none"
       id="path46250"
       inkscape:connector-curvature="0" />
    <path
       d="m 83.9958,113.2757 c -0.2047,-0.0508 -0.392,-0.1103 -0.5597,-0.1782 l 0.2086,-0.8239 z"
       style="fill:#ffffff;fill-rule:evenodd;stroke:#1b1918;stroke-width:0.3597;stroke-linecap:butt;stroke-linejoin:miter;stroke-dasharray:none"
       id="path46252"
       inkscape:connector-curvature="0" />
    <path
       d="m 85.0233,113.4442 c -0.1533,-0.0147 -0.3014,-0.0328 -0.4436,-0.0542 -0.0989,-0.0148 -0.1951,-0.0313 -0.2882,-0.0493 l 0.248,-1.074 z"
       style="fill:#ffffff;fill-rule:evenodd;stroke:#1b1918;stroke-width:0.3597;stroke-linecap:butt;stroke-linejoin:miter;stroke-dasharray:none"
       id="path46254"
       inkscape:connector-curvature="0" />
    <path
       d="m 86.0895,113.4919 c -0.3011,2e-4 -0.5891,-0.01 -0.8619,-0.0303 l 0.2631,-1.2484 z"
       style="fill:#ffffff;fill-rule:evenodd;stroke:#1b1918;stroke-width:0.3597;stroke-linecap:butt;stroke-linejoin:miter;stroke-dasharray:none"
       id="path46256"
       inkscape:connector-curvature="0" />
    <path
       d="m 87.1895,113.4488 c -0.3327,0.025 -0.655,0.0391 -0.9643,0.0424 l 0.2639,-1.3791 z"
       style="fill:#ffffff;fill-rule:evenodd;stroke:#1b1918;stroke-width:0.3597;stroke-linecap:butt;stroke-linejoin:miter;stroke-dasharray:none"
       id="path46258"
       inkscape:connector-curvature="0" />
    <path
       d="m 88.3158,113.3264 c -0.3567,0.0502 -0.7053,0.0887 -1.0435,0.1159 l 0.2539,-1.4805 z"
       style="fill:#ffffff;fill-rule:evenodd;stroke:#1b1918;stroke-width:0.3597;stroke-linecap:butt;stroke-linejoin:miter;stroke-dasharray:none"
       id="path46260"
       inkscape:connector-curvature="0" />
    <path
       d="m 89.4523,113.1316 c -0.3707,0.0748 -0.7362,0.1377 -1.0938,0.1888 l 0.2351,-1.5588 z"
       style="fill:#ffffff;fill-rule:evenodd;stroke:#1b1918;stroke-width:0.3597;stroke-linecap:butt;stroke-linejoin:miter;stroke-dasharray:none"
       id="path46262"
       inkscape:connector-curvature="0" />
    <path
       d="m 92.5397,112.2292 c -0.8686,0.3463 -1.871,0.6488 -2.9527,0.8748 l -0.1201,0.0246 0.1846,-1.6109 0.8921,1.3607 0.1186,-1.6383 0.9102,1.3321 0.0454,-1.639 z"
       style="fill:#ffffff;fill-rule:evenodd;stroke:#1b1918;stroke-width:0.3597;stroke-linecap:butt;stroke-linejoin:miter;stroke-dasharray:none"
       id="path46264"
       inkscape:connector-curvature="0" />
    <path
       d="m 93.4269,111.8379 c -0.2751,0.1345 -0.5701,0.2648 -0.8825,0.3895 l -0.0332,-1.6262 z"
       style="fill:#ffffff;fill-rule:evenodd;stroke:#1b1918;stroke-width:0.3597;stroke-linecap:butt;stroke-linejoin:miter;stroke-dasharray:none"
       id="path46266"
       inkscape:connector-curvature="0" />
    <path
       d="m 94.2257,111.4016 c -0.2359,0.1449 -0.4954,0.2872 -0.7758,0.425 l -0.1157,-1.5773 z"
       style="fill:#ffffff;fill-rule:evenodd;stroke:#1b1918;stroke-width:0.3597;stroke-linecap:butt;stroke-linejoin:miter;stroke-dasharray:none"
       id="path46268"
       inkscape:connector-curvature="0" />
    <path
       d="m 94.9186,110.9129 c -0.1829,0.1509 -0.3931,0.301 -0.6279,0.4484 l -0.0136,0.008 -0.1979,-1.4878 z"
       style="fill:#ffffff;fill-rule:evenodd;stroke:#1b1918;stroke-width:0.3597;stroke-linecap:butt;stroke-linejoin:miter;stroke-dasharray:none"
       id="path46270"
       inkscape:connector-curvature="0" />
    <path
       d="m 95.4691,110.3473 c -0.1189,0.1627 -0.274,0.3269 -0.4617,0.4903 l -0.2696,-1.332 z"
       style="fill:#ffffff;fill-rule:evenodd;stroke:#1b1918;stroke-width:0.3597;stroke-linecap:butt;stroke-linejoin:miter;stroke-dasharray:none"
       id="path46272"
       inkscape:connector-curvature="0" />
    <path
       d="m 95.7478,109.5968 c 0.0048,0.1795 -0.0481,0.3655 -0.1527,0.5546 l -0.2936,-1.025 z"
       style="fill:#ffffff;fill-rule:evenodd;stroke:#1b1918;stroke-width:0.4799;stroke-linecap:butt;stroke-linejoin:miter;stroke-dasharray:none"
       id="path46274"
       inkscape:connector-curvature="0" />
  </g>
  <path
     inkscape:connector-curvature="0"
     id="path46278"
     style="fill:#ffec00;fill-rule:evenodd;stroke:#000000;stroke-width:1.57569;stroke-linecap:butt;stroke-linejoin:miter;stroke-dasharray:none"
     d="m 181.10255,355.79789 a 51.404175,47.593926 0 0 1 -51.40417,47.59439 51.404175,47.593926 0 1 1 51.40417,-47.59439 z"
     inkscape:export-filename="E:\TexturePacker\projects\face\fail1.png"
     inkscape:export-xdpi="120.452"
     inkscape:export-ydpi="120.452" />
  <path
     inkscape:connector-curvature="0"
     id="path46280"
     style="fill:#1063aa;fill-rule:evenodd;stroke:#1b1918;stroke-width:1.5757;stroke-linecap:butt;stroke-linejoin:miter;stroke-dasharray:none"
     d="m 80.884887,326.74924 c 1.944111,-17.67179 14.757372,-30.02991 44.761863,-31.64065 32.74763,-0.0272 50.12942,12.74974 52.14581,33.44633 l -40.369,2.90127 -36.26262,-0.28736 c -11.612099,-0.12441 -18.017415,-1.80306 -20.276053,-4.41959 z" />
  <path
     inkscape:connector-curvature="0"
     id="path46282"
     style="fill:#1063aa;fill-rule:evenodd;stroke:#1b1918;stroke-width:1.5757;stroke-linecap:butt;stroke-linejoin:miter;stroke-dasharray:none"
     d="m 137.87959,331.44042 c 44.22831,0.91599 81.90367,0.73945 81.19533,-1.98528 -11.37117,-1.51394 -20.31285,-2.52279 -42.25792,-4.40601 l -18.22155,4.1182 z" />
  <path
     inkscape:connector-curvature="0"
     id="path46284"
     style="fill:#1063aa;fill-rule:evenodd;stroke:#1b1918;stroke-width:1.5757;stroke-linecap:butt;stroke-linejoin:miter;stroke-dasharray:none"
     d="m 148.87752,330.39083 c 44.22788,0.64526 67.71141,0.38725 67.00306,-1.53233 -11.37116,-1.06668 -17.4821,-2.05932 -39.06358,-3.80937 l -13.59257,2.90171 z" />
  <path
     inkscape:connector-curvature="0"
     id="path46286"
     style="fill:#1063aa;fill-rule:evenodd;stroke:#1b1918;stroke-width:1.5757;stroke-linecap:butt;stroke-linejoin:miter;stroke-dasharray:none"
     d="m 155.15668,329.20237 c -1.04039,-14.55761 -16.64497,-27.30779 -30.37904,-34.09378 -13.98945,7.91224 -21.96653,22.04143 -23.93123,36.17063" />
  <path
     inkscape:connector-curvature="0"
     id="path46288"
     style="fill:#1063aa;fill-rule:evenodd;stroke:#1b1918;stroke-width:1.5757;stroke-linecap:butt;stroke-linejoin:miter;stroke-dasharray:none"
     d="m 128.01491,294.73405 c -0.0403,-0.4661 -1.52358,-0.84371 -3.33671,-0.84371 -1.81357,0 -3.29684,0.37761 -3.33714,0.84371 h -0.0574 v 0.88882 c 2.30201,0.44814 4.56196,0.44814 6.78118,0 v -0.88882 z" />
  <path
     inkscape:connector-curvature="0"
     id="path46291"
     style="fill:#1a1a1a;fill-rule:evenodd;stroke:#000000;stroke-width:1.57569;stroke-linecap:butt;stroke-linejoin:miter;stroke-dasharray:none"
     d="M 120.03523,346.10019 H 97.769044 v 3.89612 h 22.266186 z"
     inkscape:export-filename="E:\TexturePacker\projects\face\fail1.png"
     inkscape:export-xdpi="120.452"
     inkscape:export-ydpi="120.452" />
  <path
     inkscape:connector-curvature="0"
     id="path46293"
     style="fill:#1a1a1a;fill-rule:evenodd;stroke:#000000;stroke-width:1.57569;stroke-linecap:butt;stroke-linejoin:miter;stroke-dasharray:none"
     d="m 162.42805,346.22943 h -22.26616 v 3.89609 h 22.26616 z"
     inkscape:export-filename="E:\TexturePacker\projects\face\fail1.png"
     inkscape:export-xdpi="120.452"
     inkscape:export-ydpi="120.452" />
  <path
     inkscape:connector-curvature="0"
     id="path46295"
     style="fill:#ff0000;fill-rule:evenodd;stroke:#000000;stroke-width:2.10245;stroke-linecap:butt;stroke-linejoin:miter;stroke-dasharray:none"
     d="m 150.7965,383.64258 a 19.882045,15.503704 0 0 0 -39.76409,0 h 19.88204 z"
     inkscape:export-filename="E:\TexturePacker\projects\face\fail1.png"
     inkscape:export-xdpi="120.452"
     inkscape:export-ydpi="120.452" />
  <path
     inkscape:connector-curvature="0"
     id="path46322"
     style="fill:#ffec00;fill-rule:evenodd;stroke:#000000;stroke-width:1.57569;stroke-linecap:butt;stroke-linejoin:miter;stroke-dasharray:none"
     d="m 369.23477,353.08154 a 51.404175,47.593926 0 0 1 -51.40419,47.59437 51.404175,47.593926 0 1 1 51.40419,-47.59437 z" />
  <path
     inkscape:connector-curvature="0"
     id="path46324"
     style="fill:#1063aa;fill-rule:evenodd;stroke:#1b1918;stroke-width:1.5757;stroke-linecap:butt;stroke-linejoin:miter;stroke-dasharray:none"
     d="m 269.01754,324.0329 c 1.94367,-17.67179 14.75737,-30.0299 44.76143,-31.64065 32.74763,-0.0272 50.12986,12.74974 52.14625,33.44634 l -40.36944,2.90127 -36.26218,-0.28737 c -11.6121,-0.12441 -18.01786,-1.80262 -20.27606,-4.41959 z" />
  <path
     inkscape:connector-curvature="0"
     id="path46326"
     style="fill:#1063aa;fill-rule:evenodd;stroke:#1b1918;stroke-width:1.5757;stroke-linecap:butt;stroke-linejoin:miter;stroke-dasharray:none"
     d="m 326.01224,328.72409 c 44.22787,0.91598 81.90324,0.73944 81.19533,-1.98529 -11.37116,-1.51394 -20.31285,-2.52279 -42.25835,-4.40601 l -18.22111,4.11864 z" />
  <path
     inkscape:connector-curvature="0"
     id="path46328"
     style="fill:#1063aa;fill-rule:evenodd;stroke:#1b1918;stroke-width:1.5757;stroke-linecap:butt;stroke-linejoin:miter;stroke-dasharray:none"
     d="m 337.00974,327.6745 c 44.22787,0.64526 67.7114,0.38724 67.0035,-1.53234 -11.37117,-1.06668 -17.48211,-2.05932 -39.06402,-3.80937 l -13.59257,2.90171 z" />
  <path
     inkscape:connector-curvature="0"
     id="path46330"
     style="fill:#1063aa;fill-rule:evenodd;stroke:#1b1918;stroke-width:1.5757;stroke-linecap:butt;stroke-linejoin:miter;stroke-dasharray:none"
     d="m 343.28933,326.48604 c -1.04083,-14.55762 -16.64497,-27.3078 -30.37947,-34.09379 -13.98945,7.91224 -21.96653,22.04144 -23.93123,36.17063" />
  <path
     inkscape:connector-curvature="0"
     id="path46332"
     style="fill:#1063aa;fill-rule:evenodd;stroke:#1b1918;stroke-width:1.5757;stroke-linecap:butt;stroke-linejoin:miter;stroke-dasharray:none"
     d="m 316.14756,292.01771 c -0.0403,-0.4661 -1.52401,-0.8437 -3.33714,-0.8437 -1.81313,0 -3.29684,0.3776 -3.33714,0.8437 h -0.0569 v 0.88882 c 2.30157,0.44814 4.56152,0.44814 6.78117,0 v -0.88882 z" />
  <path
     inkscape:connector-curvature="0"
     id="path46335"
     style="fill:none;fill-rule:evenodd;stroke:#000000;stroke-width:4.2045;stroke-linecap:butt;stroke-linejoin:miter;stroke-dasharray:none"
     d="m 337.74655,381.4093 a 18.011502,8.5497248 0 0 0 -36.02299,0" />
  <path
     inkscape:connector-curvature="0"
     id="path46337"
     style="fill:none;fill-rule:evenodd;stroke:#000000;stroke-width:4.2045;stroke-linecap:butt;stroke-linejoin:miter;stroke-dasharray:none"
     d="m 347.18061,342.63511 a 10.292225,5.9777695 0 0 1 -20.58444,0" />
  <path
     inkscape:connector-curvature="0"
     id="path46339"
     style="fill:none;fill-rule:evenodd;stroke:#000000;stroke-width:4.2045;stroke-linecap:butt;stroke-linejoin:miter;stroke-dasharray:none"
     d="m 307.72804,342.63511 a 10.292225,5.9777696 0 0 1 -20.58445,0" />
  <path
     inkscape:connector-curvature="0"
     id="path46342"
     style="fill:#ffec00;fill-rule:evenodd;stroke:#000000;stroke-width:1.5832;stroke-linecap:butt;stroke-linejoin:miter;stroke-dasharray:none"
     d="m 553.22206,353.44449 a 51.648983,47.820592 0 0 1 -51.64895,47.82058 51.648983,47.820592 0 1 1 51.64895,-47.82058 z"
     inkscape:export-filename="E:\TexturePacker\projects\face\win.png"
     inkscape:export-xdpi="120.452"
     inkscape:export-ydpi="120.452" />
  <path
     inkscape:connector-curvature="0"
     id="path46344"
     style="fill:#1063aa;fill-rule:evenodd;stroke:#1b1918;stroke-width:1.58321;stroke-linecap:butt;stroke-linejoin:miter;stroke-dasharray:none"
     d="m 452.52757,324.2575 c 1.95337,-17.75594 14.82765,-30.17291 44.9746,-31.79133 32.90359,-0.0277 50.3686,12.81046 52.39459,33.60562 l -40.56169,2.91465 -36.43489,-0.28874 c -11.6674,-0.12456 -18.10366,-1.8112 -20.37261,-4.4402 z" />
  <path
     inkscape:connector-curvature="0"
     id="path46346"
     style="fill:#1063aa;fill-rule:evenodd;stroke:#1b1918;stroke-width:1.58321;stroke-linecap:butt;stroke-linejoin:miter;stroke-dasharray:none"
     d="m 509.7937,328.97103 c 44.4385,0.91991 82.2933,0.74253 81.58202,-1.99518 -11.42532,-1.52115 -20.40959,-2.53436 -42.45916,-4.42655 l -18.30834,4.13781 z" />
  <path
     inkscape:connector-curvature="0"
     id="path46348"
     style="fill:#1063aa;fill-rule:evenodd;stroke:#1b1918;stroke-width:1.58321;stroke-linecap:butt;stroke-linejoin:miter;stroke-dasharray:none"
     d="m 520.84358,327.916 c 44.4385,0.64834 68.03387,0.38953 67.32259,-1.53963 -11.42532,-1.07176 -17.56536,-2.06869 -39.24961,-3.82707 l -13.65775,2.91553 z" />
  <path
     inkscape:connector-curvature="0"
     id="path46350"
     style="fill:#1063aa;fill-rule:evenodd;stroke:#1b1918;stroke-width:1.58321;stroke-linecap:butt;stroke-linejoin:miter;stroke-dasharray:none"
     d="m 527.15307,326.72188 c -1.04578,-14.6265 -16.72424,-27.43784 -30.52415,-34.25571 -14.05608,7.94992 -22.07114,22.1464 -24.0452,36.34245" />
  <path
     inkscape:connector-curvature="0"
     id="path46352"
     style="fill:#1063aa;fill-rule:evenodd;stroke:#1b1918;stroke-width:1.58321;stroke-linecap:butt;stroke-linejoin:miter;stroke-dasharray:none"
     d="m 499.88204,292.0894 c -0.0396,-0.46831 -1.53127,-0.84772 -3.35303,-0.84772 -1.82177,0 -3.31255,0.37941 -3.3526,0.84772 h -0.0577 v 0.89306 c 2.31253,0.45027 4.58325,0.45027 6.81347,0 v -0.89306 z" />
  <path
     inkscape:connector-curvature="0"
     id="path46355"
     style="fill:none;fill-rule:evenodd;stroke:#000000;stroke-width:5.28131;stroke-linecap:butt;stroke-linejoin:miter;stroke-dasharray:none"
     d="m 491.17596,352.70369 a 11.080027,9.4805025 0 0 0 -22.16005,0"
     inkscape:export-filename="E:\TexturePacker\projects\face\win.png"
     inkscape:export-xdpi="120.452"
     inkscape:export-ydpi="120.452" />
  <path
     inkscape:connector-curvature="0"
     id="path46357"
     style="fill:none;fill-rule:evenodd;stroke:#000000;stroke-width:5.28131;stroke-linecap:butt;stroke-linejoin:miter;stroke-dasharray:none"
     d="m 533.64789,352.70369 a 11.08003,9.4805057 0 0 0 -22.16006,0"
     inkscape:export-filename="E:\TexturePacker\projects\face\win.png"
     inkscape:export-xdpi="120.452"
     inkscape:export-ydpi="120.452" />
  <path
     inkscape:connector-curvature="0"
     id="path46359"
     style="fill:#ff0000;fill-rule:evenodd;stroke:#000000;stroke-width:2.34788;stroke-linecap:butt;stroke-linejoin:miter;stroke-dasharray:none"
     d="m 524.71739,369.50033 a 22.489807,17.092593 0 0 1 -44.97961,0 h 22.48981 z"
     inkscape:export-filename="E:\TexturePacker\projects\face\win.png"
     inkscape:export-xdpi="120.452"
     inkscape:export-ydpi="120.452" />
  <path
     d="m 421.88434,-125.14791 c -3.26042,2.94739 -13.12351,8.35513 -14.9262,12.84174 l 1.66828,0.3127 c 6.99124,-0.42847 10.45556,-12.29018 20.99296,-9.78657 9.30854,2.2132 4.98294,11.50111 3.64064,16.11779 -1.69324,5.830903 -0.12172,2.09045 -3.60072,6.201153 l 3.73514,1.16298 c 1.98531,0.51163 2.20353,0.20957 4.26871,1.15567 2.55882,1.17263 3.78135,3.15496 3.92207,5.60602 0.42882,7.63226 -6.19516,6.605 -11.45121,8.8388 -2.61139,7.00886 0.81102,24.03316 -28.13785,24.43734 -7.97458,0.10975 -16.99104,-2.1337 -21.28071,-5.72143 -6.51883,-5.45901 -6.3738,-10.30588 -8.03145,-18.62708 l -0.97869,-0.0998 v -12.22433 c 0.63439,-0.97236 0.85493,-2.09775 0.65535,-3.20618 l 0.9075,-0.33799 c -1.67229,-3.258753 -0.89486,-1.08548 -1.70157,-2.786713 -0.68263,-1.43344 -0.54424,-1.19359 -1.09445,-3.08744 -1.57582,-5.42304 -5.66791,-15.02432 2.92208,-17.26779 13.18871,-3.44405 14.76619,13.36502 23.20516,9.31286 l -15.8021,-12.84173 c 14.69067,-10.14352 32.90457,-8.40835 41.08706,0 z"
     style="fill:#9900cc;fill-rule:evenodd;stroke:#000000;stroke-width:1.59644;stroke-linecap:butt;stroke-linejoin:miter;stroke-dasharray:none"
     id="path46362"
     inkscape:connector-curvature="0" />
  <g
     id="Layer1236"
     transform="matrix(3.3266169,0,0,3.3266169,-294.50758,-184.28551)">
    <path
       d="m 216.1652,25.3359 -3.7834,2.4039"
       style="fill:none;stroke:#000000;stroke-width:0.9598;stroke-linecap:butt;stroke-linejoin:miter;stroke-dasharray:none"
       id="path46364"
       inkscape:connector-curvature="0" />
    <path
       d="m 216.2769,25.3685 -4.0064,-2.4038"
       style="fill:none;stroke:#000000;stroke-width:0.9598;stroke-linecap:butt;stroke-linejoin:miter;stroke-dasharray:none"
       id="path46366"
       inkscape:connector-curvature="0" />
  </g>
  <g
     id="Layer1237"
     transform="matrix(3.3266169,0,0,3.3266169,-294.50758,-184.28551)">
    <path
       d="m 210.9612,16.3837 2.0832,-2.6648 0.1965,0.0017 1.1962,3.0202 2.6231,-2.0809 c 0.1064,-0.0831 0.0688,-0.0619 0.2497,-0.0647 -0.0135,0.2695 -0.146,0.5223 -0.2315,0.7813 l -1.4057,4.0389 c -0.0264,0.0715 -0.0516,0.1235 -0.0741,0.201 l -0.3936,1.1588 c 0.1239,0.0688 0.4881,0.0424 0.4572,0.5028 -0.0263,0.39 -0.4228,0.3351 -0.664,0.3351 h -11.8047 c -0.71,-2e-4 -0.5266,-0.548 -0.3959,-0.6775 0.1408,-0.1395 0.1099,-0.0806 0.3021,-0.1505 l -2.0274,-5.7733 c -0.0502,-0.1569 -0.117,-0.2428 -0.1239,-0.4267 0.2562,0.0066 0.57,0.3236 0.7639,0.4802 0.2506,0.2024 2.0549,1.6148 2.1391,1.6283 0.2765,-0.6472 0.5472,-1.4342 0.8267,-2.0598 l 0.4119,-0.9634 c 0.1991,0.022 0.1699,0.0848 0.3339,0.2978 l 1.0597,1.3543 c 0.1062,0.1235 0.174,0.204 0.2732,0.3338 l 0.3863,0.5022 c 0.0507,0.0673 0.083,0.1258 0.153,0.1818 l 0.469,-0.7784 c 0.2278,-0.4825 0.9892,-1.6898 1.2324,-2.2112 0.0612,-0.1312 0.0613,-0.1208 0.206,-0.1321 l 0.4316,0.7899 c 0.077,0.1262 0.1319,0.2326 0.2192,0.3756 z"
       style="fill:#00ff00;fill-rule:evenodd;stroke:#000000;stroke-width:0.3597;stroke-linecap:butt;stroke-linejoin:miter;stroke-dasharray:none"
       id="path46369"
       inkscape:connector-curvature="0" />
    <path
       d="m 204.045,20.8849 h 10.6435 c 0.3039,1e-4 0.6464,-0.0499 0.8013,0.1 0.2126,0.2058 0.0504,0.525 -0.1958,0.5803 -0.1972,0.0442 -10.2263,0.0115 -11.4812,0.0115 -0.319,0 -0.7418,0.0508 -0.9345,-0.0941 -0.1961,-0.1476 -0.1082,-0.529 0.1382,-0.5889 0.0898,-0.0218 0.8626,-0.0088 1.0285,-0.0088 z"
       style="fill:#00ff00;fill-rule:evenodd;stroke:#000000;stroke-width:0.3597;stroke-linecap:butt;stroke-linejoin:miter;stroke-dasharray:none"
       id="path46371"
       inkscape:connector-curvature="0" />
    <path
       d="m 210.1943,11.9903 -0.9839,0.8531 c -0.3233,0.0038 -0.3228,-0.1362 -0.656,-0.4145 -0.1068,-0.0893 -0.1918,-0.1438 -0.2975,-0.248 -0.1491,-0.147 -0.2081,-0.1076 -0.2168,-0.3116 0.302,-0.2354 0.7304,-0.585 0.9771,-0.828 0.2185,0.0027 0.1655,-0.0397 0.4318,0.2112 0.2154,0.2028 0.7297,0.454 0.7453,0.7378 z"
       style="fill:#00ff00;fill-rule:evenodd;stroke:#000000;stroke-width:0.3597;stroke-linecap:butt;stroke-linejoin:miter;stroke-dasharray:none"
       id="path46373"
       inkscape:connector-curvature="0" />
    <path
       d="m 213.0677,13.3785 -0.3634,-0.4598 c -0.2229,-0.2826 -0.3124,-0.3334 -0.3119,-0.5645 l 0.8114,-0.4263 c 0.0461,-0.0275 0.0772,-0.0499 0.137,-0.0784 0.1265,-0.0602 0.006,-0.0375 0.1866,-0.0519 0.008,0.0064 0.0198,0.0067 0.0233,0.0192 9e-4,0.0027 0.0394,0.0335 0.0435,0.0375 l 0.6138,0.7758 c 0.1431,0.2008 -0.0863,0.2415 -0.4976,0.4763 -0.1766,0.1009 -0.3828,0.2683 -0.6427,0.2721 z"
       style="fill:#00ff00;fill-rule:evenodd;stroke:#000000;stroke-width:0.3597;stroke-linecap:butt;stroke-linejoin:miter;stroke-dasharray:none"
       id="path46375"
       inkscape:connector-curvature="0" />
    <path
       d="m 205.7043,12.3671 c -0.003,0.2134 0.002,0.1737 -0.1086,0.3115 -0.0754,0.094 -0.1184,0.1494 -0.187,0.2403 -0.0571,0.0757 -0.1158,0.143 -0.1876,0.2378 -0.0297,0.0393 -0.0604,0.0866 -0.0898,0.1246 -0.1614,0.2094 -0.2035,0.1089 -0.4413,-0.0168 l -0.8137,-0.4342 c -10e-4,-0.1605 -0.0107,-0.1686 0.1075,-0.3037 0.0708,-0.081 0.1113,-0.1462 0.1895,-0.2356 l 0.3818,-0.4759 c 0.1937,-0.0112 0.369,0.1053 0.5976,0.2373 0.1844,0.1064 0.3946,0.217 0.5516,0.3147 z"
       style="fill:#00ff00;fill-rule:evenodd;stroke:#000000;stroke-width:0.3597;stroke-linecap:butt;stroke-linejoin:miter;stroke-dasharray:none"
       id="path46377"
       inkscape:connector-curvature="0" />
    <path
       d="m 210.1147,11.8991 c -0.0516,0.1198 -0.8991,0.8359 -0.9995,0.8731 -0.0668,0.0018 -0.89,-0.7352 -0.9933,-0.8284 0.0898,-0.1102 0.8829,-0.785 0.9933,-0.8321 0.1442,0.0492 0.8224,0.6578 0.9995,0.7874 z"
       style="fill:#00ff00;fill-rule:evenodd;stroke:#000000;stroke-width:0.3597;stroke-linecap:butt;stroke-linejoin:miter;stroke-dasharray:none"
       id="path46379"
       inkscape:connector-curvature="0" />
    <path
       d="m 218.5538,13.9907 c -0.1205,0.0233 -0.2011,0.0698 -0.2981,0.1049 -0.2649,0.0959 -0.7311,0.3057 -0.9525,0.2764 l -0.0283,-0.0471 c -0.0245,-0.0442 -0.0116,-0.0222 -0.0377,-0.0713 l -0.1606,-0.3295 c -0.0558,-0.1011 -0.2657,-0.4875 -0.2754,-0.6095 0.1387,-0.1009 1.0962,-0.44 1.2709,-0.4472 0.0274,0.0667 0.03,0.0543 0.0608,0.1134 0.1426,0.2743 0.4329,0.7534 0.4209,1.0099 z"
       style="fill:#00ff00;fill-rule:evenodd;stroke:#000000;stroke-width:0.3597;stroke-linecap:butt;stroke-linejoin:miter;stroke-dasharray:none"
       id="path46381"
       inkscape:connector-curvature="0" />
    <path
       d="m 201.2935,13.2702 c 0.0141,0.2819 -0.2221,0.6418 -0.3716,0.9527 -0.006,0.0128 -0.0314,0.0692 -0.033,0.0723 l -0.0402,0.0754 c -0.1982,0.0265 -0.2102,-0.0059 -0.4619,-0.0952 -1.177,-0.4175 -0.8579,-0.1903 -0.325,-1.3938 0.2721,0.0048 0.9935,0.2926 1.2317,0.3886 z"
       style="fill:#00ff00;fill-rule:evenodd;stroke:#000000;stroke-width:0.3597;stroke-linecap:butt;stroke-linejoin:miter;stroke-dasharray:none"
       id="path46383"
       inkscape:connector-curvature="0" />
    <path
       d="m 205.6223,12.4448 c -0.0291,0.1212 -0.5353,0.7516 -0.6421,0.8737 -0.1097,-0.0468 -0.9054,-0.4622 -1.02,-0.5726 0.034,-0.114 0.6002,-0.8036 0.6653,-0.8617 0.1436,0.0416 0.9096,0.4637 0.9968,0.5606 z"
       style="fill:#00ff00;fill-rule:evenodd;stroke:#000000;stroke-width:0.3597;stroke-linecap:butt;stroke-linejoin:miter;stroke-dasharray:none"
       id="path46385"
       inkscape:connector-curvature="0" />
    <path
       d="m 214.1701,12.7409 c -0.0958,0.0797 -0.9111,0.5346 -1.0297,0.5629 l -0.6665,-0.859 1.0264,-0.5773 c 0.1285,0.2174 0.6081,0.7473 0.6698,0.8734 z"
       style="fill:#00ff00;fill-rule:evenodd;stroke:#000000;stroke-width:0.3597;stroke-linecap:butt;stroke-linejoin:miter;stroke-dasharray:none"
       id="path46387"
       inkscape:connector-curvature="0" />
    <path
       d="m 201.2117,13.3481 c 2e-4,0.1362 -0.2166,0.5325 -0.3134,0.7234 l -0.1432,0.2392 -1.0716,-0.3939 c -0.007,-0.1608 0.1248,-0.339 0.204,-0.4813 0.0591,-0.1061 0.178,-0.3876 0.2484,-0.4744 0.1405,0.015 0.9758,0.3085 1.0758,0.387 z"
       style="fill:#00ff00;fill-rule:evenodd;stroke:#000000;stroke-width:0.3597;stroke-linecap:butt;stroke-linejoin:miter;stroke-dasharray:none"
       id="path46389"
       inkscape:connector-curvature="0" />
    <path
       d="m 218.4798,13.9303 -1.1111,0.3471 -0.4852,-0.9392 c 0.1777,-0.032 0.8792,-0.3537 1.1215,-0.392 0.0975,0.166 0.4444,0.8221 0.4748,0.9841 z"
       style="fill:#00ff00;fill-rule:evenodd;stroke:#000000;stroke-width:0.3597;stroke-linecap:butt;stroke-linejoin:miter;stroke-dasharray:none"
       id="path46391"
       inkscape:connector-curvature="0" />
  </g>
  <g
     id="Layer1238"
     transform="matrix(3.3266169,0,0,3.3266169,-294.50758,-184.28551)">
    <path
       d="m 209.2945,34.4007 a 3.91425,3.6423465 0 0 1 7.8285,0 h -3.9142 z"
       style="fill:#1a1a1a;fill-rule:evenodd"
       id="path46394"
       inkscape:connector-curvature="0" />
    <path
       d="m 213.2085,33.9005 h 3.3151 c 0,-0.3979 -0.1106,-0.7753 -0.3083,-1.1138 -0.2375,-0.0637 -0.2116,0.4085 -0.5691,0.0632 -0.6034,-0.583 -0.3895,0.3065 -0.8719,-0.1044 -0.6351,-0.5402 -0.3787,0.3273 -0.8846,-0.0499 -0.6644,-0.4951 -0.3692,0.348 -0.8944,0.0051 -0.6869,-0.4484 -0.3593,0.3666 -0.9005,0.0605 -0.7099,-0.4013 -0.3479,0.386 -0.9044,0.1164 -0.7316,-0.355 -0.3334,0.406 -0.9043,0.1718 -0.0738,-0.0302 -0.136,-0.0502 -0.1889,-0.0622 -0.1316,0.2846 -0.2035,0.5923 -0.2035,0.9133 z m 3.0068,-1.1138 c -0.5273,-0.9026 -1.6751,-1.5284 -3.0068,-1.5284 -1.4279,0 -2.6448,0.7198 -3.1113,1.7289 0.0529,0.012 0.1151,0.032 0.1889,0.0622 0.5709,0.2342 0.1727,-0.5268 0.9043,-0.1718 0.5565,0.2696 0.1945,-0.5177 0.9044,-0.1164 0.5412,0.3061 0.2136,-0.5089 0.9005,-0.0605 0.5252,0.3429 0.23,-0.5002 0.8944,-0.0051 0.5059,0.3772 0.2495,-0.4903 0.8846,0.0499 0.4824,0.4109 0.2685,-0.4786 0.8719,0.1044 0.3575,0.3453 0.3316,-0.1269 0.5691,-0.0632 z"
       style="fill:#ffffff;fill-rule:evenodd;stroke:#000000;stroke-width:0.4799;stroke-linecap:butt;stroke-linejoin:miter;stroke-dasharray:none"
       id="path46396"
       inkscape:connector-curvature="0" />
  </g>
  <g
     id="Layer1239"
     transform="matrix(3.3266169,0,0,3.3266169,-294.50758,-184.28551)">
    <path
       d="m 203.491,25.1965 a 4.7778815,2.93265 0 0 0 0,5.8653 v -2.9327 z"
       style="fill:#9900cc;fill-rule:evenodd;stroke:#1a1a1a;stroke-width:0.3597;stroke-linecap:butt;stroke-linejoin:miter;stroke-dasharray:none"
       id="path46399"
       inkscape:connector-curvature="0" />
    <path
       d="m 202.4446,29.8676 a 2.5672,1.8121 0 0 1 0,-3.6242 v 1.8121 z"
       style="fill:#1a1a1a;fill-rule:evenodd"
       id="path46401"
       inkscape:connector-curvature="0" />
  </g>
  <g
     id="Layer1222"
     transform="matrix(3.3266169,0,0,3.3266169,-294.50758,-184.28551)">
    <path
       d="m 176.4689,15.1143 -2.2001,-2.8142 -0.2075,0.0017 -1.2633,3.1896 -2.7702,-2.1975 c -0.1123,-0.0878 -0.0726,-0.0654 -0.2636,-0.0684 0.0142,0.2847 0.1541,0.5516 0.2445,0.8251 l 1.4844,4.2654 c 0.0279,0.0755 0.0546,0.1304 0.0783,0.2122 l 0.4157,1.2239 c -0.1308,0.0726 -0.5156,0.0447 -0.4828,0.5309 0.0277,0.4119 0.4465,0.3539 0.7011,0.3539 h 12.4667 c 0.7498,-2e-4 0.5561,-0.5787 0.4181,-0.7154 -0.1488,-0.1474 -0.116,-0.0852 -0.319,-0.159 l 2.141,-6.097 c 0.0531,-0.1657 0.1236,-0.2564 0.1308,-0.4507 -0.2705,0.007 -0.6019,0.3418 -0.8067,0.5072 -0.2646,0.2137 -2.1701,1.7053 -2.259,1.7196 -0.292,-0.6835 -0.5779,-1.5147 -0.8731,-2.1753 l -0.435,-1.0174 c -0.2102,0.0232 -0.1794,0.0895 -0.3526,0.3145 l -1.1191,1.4302 c -0.1121,0.1305 -0.1837,0.2155 -0.2885,0.3526 l -0.408,0.5303 c -0.0535,0.0711 -0.0876,0.1328 -0.1615,0.192 l -0.4954,-0.822 c -0.2406,-0.5096 -1.0446,-1.7846 -1.3015,-2.3353 -0.0646,-0.1385 -0.0647,-0.1275 -0.2175,-0.1394 l -0.4558,0.8341 c -0.0814,0.1333 -0.1394,0.2457 -0.2315,0.3967 z"
       style="fill:#00ff00;fill-rule:evenodd;stroke:#000000;stroke-width:0.3597;stroke-linecap:butt;stroke-linejoin:miter;stroke-dasharray:none"
       id="path46148"
       inkscape:connector-curvature="0" />
    <path
       d="m 183.7729,19.8679 h -11.2404 c -0.3209,10e-5 -0.6826,-0.0527 -0.8462,0.1056 -0.2245,0.2174 -0.0533,0.5545 0.2068,0.6128 0.2083,0.0468 10.7997,0.0122 12.125,0.0122 0.3368,0 0.7834,0.0536 0.9868,-0.0994 0.2072,-0.1559 0.1143,-0.5586 -0.1459,-0.6219 -0.0948,-0.023 -0.911,-0.0093 -1.0861,-0.0093 z"
       style="fill:#00ff00;fill-rule:evenodd;stroke:#000000;stroke-width:0.3597;stroke-linecap:butt;stroke-linejoin:miter;stroke-dasharray:none"
       id="path46150"
       inkscape:connector-curvature="0" />
    <path
       d="m 177.2787,10.4746 1.0391,0.9008 c 0.3414,0.0041 0.3408,-0.1437 0.6927,-0.4376 0.1129,-0.0943 0.2026,-0.1519 0.3142,-0.2619 0.1576,-0.1553 0.2198,-0.1137 0.229,-0.3292 -0.3189,-0.2486 -0.7714,-0.6178 -1.0319,-0.8744 -0.2307,0.0029 -0.1748,-0.0419 -0.456,0.223 -0.2274,0.2143 -0.7706,0.4796 -0.7871,0.7793 z"
       style="fill:#00ff00;fill-rule:evenodd;stroke:#000000;stroke-width:0.3597;stroke-linecap:butt;stroke-linejoin:miter;stroke-dasharray:none"
       id="path46152"
       inkscape:connector-curvature="0" />
    <path
       d="m 174.2442,11.9406 0.3838,-0.4856 c 0.2354,-0.2985 0.3299,-0.3521 0.3294,-0.5961 l -0.8569,-0.4503 c -0.0487,-0.029 -0.0815,-0.0527 -0.1447,-0.0827 -0.1336,-0.0636 -0.007,-0.0396 -0.1971,-0.0549 -0.008,0.0069 -0.0209,0.0071 -0.0246,0.0203 -9e-4,0.0029 -0.0416,0.0354 -0.0459,0.0397 l -0.6482,0.8192 c -0.1512,0.2121 0.0911,0.255 0.5255,0.503 0.1865,0.1065 0.4043,0.2834 0.6787,0.2874 z"
       style="fill:#00ff00;fill-rule:evenodd;stroke:#000000;stroke-width:0.3597;stroke-linecap:butt;stroke-linejoin:miter;stroke-dasharray:none"
       id="path46154"
       inkscape:connector-curvature="0" />
    <path
       d="m 182.0205,10.8725 c 0.003,0.2254 -0.002,0.1835 0.1147,0.3289 0.0797,0.0993 0.125,0.1578 0.1975,0.2538 0.0603,0.08 0.1222,0.1511 0.198,0.2512 0.0315,0.0415 0.0639,0.0914 0.0949,0.1316 0.1705,0.221 0.2149,0.1149 0.4661,-0.0178 l 0.8593,-0.4585 c 0.001,-0.1695 0.0113,-0.1781 -0.1135,-0.3208 -0.0748,-0.0856 -0.1176,-0.1544 -0.2002,-0.2488 l -0.4031,-0.5026 c -0.2047,-0.0118 -0.3898,0.1112 -0.6312,0.2506 -0.1947,0.1124 -0.4167,0.2292 -0.5825,0.3324 z"
       style="fill:#00ff00;fill-rule:evenodd;stroke:#000000;stroke-width:0.3597;stroke-linecap:butt;stroke-linejoin:miter;stroke-dasharray:none"
       id="path46156"
       inkscape:connector-curvature="0" />
    <path
       d="m 177.3628,10.3783 c 0.0545,0.1265 0.9495,0.8827 1.0555,0.922 0.0706,0.0019 0.9399,-0.7764 1.049,-0.8748 -0.0948,-0.1164 -0.9324,-0.829 -1.049,-0.8789 -0.1522,0.052 -0.8685,0.6947 -1.0555,0.8317 z"
       style="fill:#00ff00;fill-rule:evenodd;stroke:#000000;stroke-width:0.3597;stroke-linecap:butt;stroke-linejoin:miter;stroke-dasharray:none"
       id="path46158"
       inkscape:connector-curvature="0" />
    <path
       d="m 168.4505,12.5871 c 0.1273,0.0247 0.2124,0.0737 0.3148,0.1108 0.2798,0.1013 0.7721,0.3228 1.0059,0.2918 l 0.0299,-0.0497 c 0.0259,-0.0466 0.0123,-0.0234 0.0398,-0.0752 l 0.1696,-0.348 c 0.0589,-0.1068 0.2806,-0.5149 0.2908,-0.6437 -0.1465,-0.1066 -1.1576,-0.4647 -1.3421,-0.4722 -0.0289,0.0704 -0.0317,0.0573 -0.0642,0.1197 -0.1507,0.2897 -0.4572,0.7956 -0.4445,1.0665 z"
       style="fill:#00ff00;fill-rule:evenodd;stroke:#000000;stroke-width:0.3597;stroke-linecap:butt;stroke-linejoin:miter;stroke-dasharray:none"
       id="path46160"
       inkscape:connector-curvature="0" />
    <path
       d="m 186.6786,11.8263 c -0.0148,0.2976 0.2346,0.6777 0.3924,1.006 0.006,0.0136 0.0332,0.0731 0.0349,0.0764 l 0.0425,0.0796 c 0.2093,0.028 0.222,-0.0062 0.4878,-0.1005 1.243,-0.441 0.9059,-0.201 0.3432,-1.472 -0.2873,0.005 -1.0492,0.3091 -1.3008,0.4105 z"
       style="fill:#00ff00;fill-rule:evenodd;stroke:#000000;stroke-width:0.3597;stroke-linecap:butt;stroke-linejoin:miter;stroke-dasharray:none"
       id="path46162"
       inkscape:connector-curvature="0" />
    <path
       d="m 182.1071,10.9545 c 0.0308,0.128 0.5653,0.7938 0.6781,0.9227 0.1158,-0.0494 0.9562,-0.4881 1.0772,-0.6047 -0.0359,-0.1204 -0.6339,-0.8486 -0.7027,-0.91 -0.1516,0.0439 -0.9605,0.4897 -1.0526,0.592 z"
       style="fill:#00ff00;fill-rule:evenodd;stroke:#000000;stroke-width:0.3597;stroke-linecap:butt;stroke-linejoin:miter;stroke-dasharray:none"
       id="path46164"
       inkscape:connector-curvature="0" />
    <path
       d="m 173.08,11.2673 c 0.1012,0.0842 0.9621,0.5646 1.0874,0.5944 l 0.7039,-0.9072 -1.0839,-0.6096 c -0.1357,0.2295 -0.6423,0.7892 -0.7074,0.9224 z"
       style="fill:#00ff00;fill-rule:evenodd;stroke:#000000;stroke-width:0.3597;stroke-linecap:butt;stroke-linejoin:miter;stroke-dasharray:none"
       id="path46166"
       inkscape:connector-curvature="0" />
    <path
       d="m 186.765,11.9085 c -2e-4,0.1438 0.2288,0.5624 0.331,0.7639 l 0.1512,0.2526 1.1317,-0.4159 c 0.008,-0.1699 -0.1318,-0.358 -0.2155,-0.5084 -0.0623,-0.112 -0.188,-0.4093 -0.2623,-0.5009 -0.1483,0.0158 -1.0305,0.3258 -1.1361,0.4087 z"
       style="fill:#00ff00;fill-rule:evenodd;stroke:#000000;stroke-width:0.3597;stroke-linecap:butt;stroke-linejoin:miter;stroke-dasharray:none"
       id="path46168"
       inkscape:connector-curvature="0" />
    <path
       d="m 168.5286,12.5234 1.1734,0.3664 0.5125,-0.9917 c -0.1877,-0.0338 -0.9286,-0.3735 -1.1844,-0.4141 -0.103,0.1753 -0.4694,0.8682 -0.5015,1.0394 z"
       style="fill:#00ff00;fill-rule:evenodd;stroke:#000000;stroke-width:0.3597;stroke-linecap:butt;stroke-linejoin:miter;stroke-dasharray:none"
       id="path46170"
       inkscape:connector-curvature="0" />
  </g>
  <path
     d="m 291.19969,185.51783 c -11.13942,-9.10902 11.83552,-33.59089 25.0404,-16.61957 12.1737,15.6427 -13.90054,25.72861 -25.0404,16.61957 z"
     style="fill:#ffffff;fill-rule:evenodd;stroke:#000000;stroke-width:1.5757;stroke-linecap:butt;stroke-linejoin:miter;stroke-dasharray:none"
     id="path2"
     inkscape:connector-curvature="0" />
  <path
     d="m 313.82332,173.29113 a 6.5380486,5.785461 0 0 1 -6.53805,5.78547 6.5380486,5.785461 0 1 1 6.53805,-5.78547 z"
     style="fill:#000000;fill-rule:evenodd;stroke:#1a1a1a;stroke-width:1.5757;stroke-linecap:butt;stroke-linejoin:miter;stroke-dasharray:none"
     id="path3"
     inkscape:connector-curvature="0" />
  <path
     d="m 358.43756,186.99848 c -9.46342,9.48707 -41.11678,-8.42566 -21.99237,-21.59112 15.81528,-10.88667 31.45841,12.10316 21.99237,21.59112 z"
     style="fill:#ffffff;fill-rule:evenodd;stroke:#000000;stroke-width:1.5757;stroke-linecap:butt;stroke-linejoin:miter;stroke-dasharray:none"
     id="path4"
     inkscape:connector-curvature="0" />
  <path
     d="m 346.91219,172.77948 a 6.2353489,5.3649233 0 0 1 -6.23577,5.36449 6.2353489,5.3649233 0 1 1 6.23577,-5.36449 z"
     style="fill:#000000;fill-rule:evenodd;stroke:#1a1a1a;stroke-width:1.5757;stroke-linecap:butt;stroke-linejoin:miter;stroke-dasharray:none"
     id="path5"
     inkscape:connector-curvature="0" />
  <path
     d="m 310.76969,198.49899 -2.64976,11.94645 9.36805,1.10366 2.64976,-11.94645 z"
     style="fill:#ffffff;fill-rule:evenodd;stroke:#ffffff;stroke-width:1.49592;stroke-linecap:butt;stroke-linejoin:miter;stroke-dasharray:none"
     id="path7"
     inkscape:connector-curvature="0" />
  <path
     d="m 330.78442,196.79556 1.99014,15.44668 8.76918,-0.79768 -1.99013,-15.44667 z"
     style="fill:#ffffff;fill-rule:evenodd;stroke:#ffffff;stroke-width:1.63413;stroke-linecap:butt;stroke-linejoin:miter;stroke-dasharray:none"
     id="path8"
     inkscape:connector-curvature="0" />
  <g
     id="g13"
     transform="matrix(4.380602,0,0,4.380602,-237.39527,119.06542)">
    <path
       d="m 117.2312,9.4206 c 0.4438,-4.0341 3.3688,-6.8552 10.2182,-7.2229 7.4756,-0.0062 11.4435,2.9105 11.9038,7.6351 l -9.2154,0.6623 -8.278,-0.0656 c -2.6508,-0.0284 -4.113,-0.4116 -4.6286,-1.0089 z"
       style="fill:#1063aa;fill-rule:evenodd;stroke:#1b1918;stroke-width:0.3597;stroke-linecap:butt;stroke-linejoin:miter;stroke-dasharray:none"
       id="path9"
       inkscape:connector-curvature="0" />
    <path
       d="m 130.2419,10.4915 c 10.0964,0.2091 18.6969,0.1688 18.5352,-0.4533 -2.5958,-0.3455 -4.637,-0.5758 -9.6466,-1.0057 l -4.1596,0.9401 z"
       style="fill:#1063aa;fill-rule:evenodd;stroke:#1b1918;stroke-width:0.3597;stroke-linecap:butt;stroke-linejoin:miter;stroke-dasharray:none"
       id="path10"
       inkscape:connector-curvature="0" />
    <path
       d="m 132.7524,10.2518 c 10.0964,0.1474 15.4572,0.0885 15.2955,-0.3498 -2.5958,-0.2435 -3.9908,-0.47 -8.9174,-0.8695 l -3.1029,0.6624 z"
       style="fill:#1063aa;fill-rule:evenodd;stroke:#1b1918;stroke-width:0.3597;stroke-linecap:butt;stroke-linejoin:miter;stroke-dasharray:none"
       id="path11"
       inkscape:connector-curvature="0" />
    <path
       d="m 134.1859,9.9806 c -0.2375,-3.3232 -3.7997,-6.2338 -6.9349,-7.7829 -3.1935,1.8062 -5.0145,5.0316 -5.463,8.257"
       style="fill:#1063aa;fill-rule:evenodd;stroke:#1b1918;stroke-width:0.3597;stroke-linecap:butt;stroke-linejoin:miter;stroke-dasharray:none"
       id="path12"
       inkscape:connector-curvature="0" />
    <path
       d="m 127.99,2.1122 c -0.009,-0.1065 -0.3478,-0.1926 -0.7617,-0.1926 -0.414,0 -0.7526,0.0861 -0.7618,0.1926 h -0.0131 v 0.2029 c 0.5255,0.1023 1.0414,0.1023 1.548,0 V 2.1122 Z"
       style="fill:#1063aa;fill-rule:evenodd;stroke:#1b1918;stroke-width:0.3597;stroke-linecap:butt;stroke-linejoin:miter;stroke-dasharray:none"
       id="path13"
       inkscape:connector-curvature="0" />
  </g>
  <g
     id="g15"
     transform="matrix(1.1299402,0,0,1.1369384,171.62689,-83.595229)">
    <path
       id="rect14"
       style="fill:#ffec00;stroke-width:1.55439;stroke-miterlimit:5.5"
       d="m 111.862,241.95804 h 48.40377 v 8.76404 H 111.862 Z" />
    <path
       id="rect15"
       style="stroke-width:0.666955;stroke-miterlimit:5.5"
       d="m 111.862,249.10855 h 48.40377 v 1.61353 H 111.862 Z" />
  </g>
  <g
     id="g17"
     transform="matrix(1.138338,0,0,1.1369384,-27.182812,-83.56461)">
    <path
       id="rect16"
       style="fill:#ffec00;stroke-width:1.55439;stroke-miterlimit:5.5"
       d="m 111.862,241.95804 h 48.40377 v 8.76404 H 111.862 Z" />
    <path
       id="rect17"
       style="stroke-width:0.666955;stroke-miterlimit:5.5"
       d="m 111.862,249.10855 h 48.40377 v 1.61353 H 111.862 Z" />
  </g>
  <text
     xml:space="preserve"
     style="font-size:28.9233px;line-height:1.25;font-family:sans-serif;word-spacing:0px;fill:#000000;fill-opacity:1;stroke:#000000;stroke-width:1.88976;stroke-dasharray:none;stroke-opacity:1"
     x="65.629921"
     y="91.257835"
     id="text17"
     transform="scale(1.1025776,0.90696565)"><tspan
       sodipodi:role="line"
       id="tspan17"
       x="65.629921"
       y="91.257835"
       style="fill:#000000;fill-opacity:1;stroke:#000000;stroke-width:1.88976;stroke-dasharray:none;stroke-opacity:1">DELIS INTRTAN</tspan></text>
</svg>
